<?xml version="1.0" encoding="utf-8"?>
<!-- Generator: Adobe Illustrator 21.1.0, SVG Export Plug-In . SVG Version: 6.00 Build 0)  -->
<svg version="1.1" id="Camada_1" xmlns="http://www.w3.org/2000/svg" xmlns:xlink="http://www.w3.org/1999/xlink" x="0px" y="0px"
	 viewBox="0 0 123.5 123.5" style="enable-background:new 0 0 123.5 123.5;" xml:space="preserve">
<style type="text/css">
	.st0{fill:#231F20;}
</style>
<path class="st0" d="M26.1,106C37.1,106,46,97.1,46,86c0-11-8.9-19.9-19.9-19.9c-11,0-19.9,8.9-19.9,19.9
	C6.2,97.1,15.1,106,26.1,106z M1.7,86c0-13.5,11-24.4,24.4-24.4c13.5,0,24.5,10.9,24.5,24.4c0,13.5-10.9,24.4-24.5,24.4
	C12.6,110.5,1.7,99.6,1.7,86z"/>
<path class="st0" d="M98.1,106.2c11,0,19.9-8.9,19.9-19.9c0-11-8.9-19.9-19.9-19.9c-11,0-19.9,8.9-19.9,19.9
	C78.1,97.3,87,106.2,98.1,106.2z M73.6,86.3c0-13.5,11-24.4,24.5-24.4c13.5,0,24.4,10.9,24.4,24.4s-11,24.4-24.4,24.4
	C84.6,110.7,73.6,99.8,73.6,86.3z"/>
<path class="st0" d="M73.7,26.6c5.1,0,9.2-4.1,9.2-9.2s-4.1-9.2-9.2-9.2s-9.2,4.1-9.2,9.2S68.6,26.6,73.7,26.6z"/>
<path class="st0" d="M74,49c-1.3,0-2.8-0.6-3.8-2.3l-6-9.3L51.9,49.5l11.4,6c4.7,2.2,4,6.4,4,6.4v25.9c0,2.9-2.4,5.3-5.3,5.3
	c-2.9,0-5.3-2.4-5.3-5.3V67L37,56c-2.4-1.3-4-3.8-4-6.7c0-2,0.7-3.8,2-5.2l19.4-19.5c2.4-2.7,5.8-2.3,5.8-2.3c4.1,0,6.2,3.6,6.2,3.6
	l10.1,15.8l15.3,0c5.5,0,5.5,7.2,0,7.2H74z"/>
</svg>
