<?xml version="1.0" encoding="utf-8"?>
<!-- Generator: Adobe Illustrator 21.1.0, SVG Export Plug-In . SVG Version: 6.00 Build 0)  -->
<svg version="1.1" id="Camada_1" xmlns="http://www.w3.org/2000/svg" xmlns:xlink="http://www.w3.org/1999/xlink" x="0px" y="0px"
	 viewBox="0 0 123.5 123.5" style="enable-background:new 0 0 123.5 123.5;" xml:space="preserve">
<style type="text/css">
	.st0{fill:#993399;}
	.st1{fill:#FFFFFF;}
	.st2{stroke:#000000;stroke-width:0.25;stroke-miterlimit:10;}
</style>
<path class="st0" d="M116,45.3c-2.5-4.9-5.6-9.3-8-14.2c-2.4-5.1-4.5-10.3-6.6-15.6c-6.5-1.1-13.1-1.1-19.6-1.8
	c-6.1-0.7-12.2-3.6-18.2-1.1c-5.5,2.2-10.3,5.4-16.3,6.3c-6.3,1-12.9,2.1-19.2,0.5c-2.2-0.6-4.5-2.4-6.7-2.7c-2.2-0.3-2.6,1.8-3.6,4
	c-1.8,4.5-4.4,8.7-6.5,13.1c1,0.8,1.6,2,1.6,3.6c0,7.6,0.6,16.7-2.4,23.8c-0.4,1-1,1.7-1.7,2.2c0.2,2.4,0.1,4.7-0.3,7.1
	c-0.2,1.4-0.6,2.9-1,4.3c0,0.4,0.1,0.9,0.1,1.3c0.1,1.2-0.3,2.3-1.1,3.2c0,0.8-0.2,1.5-0.5,2.2c-0.1,5.8-0.2,11.8,1.4,17.3
	c0.5,1.7,0.1,3.1-0.7,4.2v0.1c1.1,2.7,1.9,7,4.6,8.6c2.4,1.5,6.4,1.1,9,1c7.8-0.3,15.6-0.5,23.4-0.4c18.7,0.1,37.4,0.4,56.1,0.4
	c2.8-0.7,5.6-1.6,8-2.9c9.8-5.2,9.5-20.7,8.9-30.1c-0.4-6-0.2-11.8,0.3-17.9C117.7,56.3,118.5,50.3,116,45.3z"/>
<path class="st0" d="M116.1,24.9c-0.3-1.4-0.8-2.7-1.4-3.9c-0.2-0.3-0.4-0.7-0.7-0.9C114.7,21.7,115.4,23.3,116.1,24.9z"/>
<path class="st1" d="M2.1,106.8c0.7,1.6,1.6,3.2,2.6,4.6c3.2,4.5,9,4.7,14.1,5c0.8,0,1.6,0.1,2.4,0.1c25.8-0.5,51.6-1.2,77.4-0.6
	c0.5-0.4,1-0.8,1.7-1.1c4-1.6,8.2-2.9,11.9-5c2.2-1.3,3.5-2.8,4.1-4.5c0.5-10.3,1.3-20.6,1.6-30.9c-1-3.8-1.8-7.8-0.5-11.6
	c0.3-0.9,0.8-1.6,1.4-2.2c-0.3-4.4-0.6-8.8-0.8-13.1c-0.1-3.3-0.3-6.5-0.4-9.8c-0.2-3.4-0.5-6.7-0.8-10.1c-0.5-2.6-1.2-5.1-2.4-7.7
	c-1.2-2.8-2.6-5.6-3.7-8.5c-11.7-1.1-24-1.5-35.6-4.5C62,7,48.9,7.8,35.8,8.3C25,8.7,14.2,8.2,3.4,8.5C3.5,41.3,4.8,74.1,2.1,106.8z
	"/>
<path class="st0" d="M29.7,101.3c9.9,0,17.9-8,17.9-17.9s-8-17.9-17.9-17.9s-17.9,8-17.9,17.9C11.8,93.3,19.8,101.3,29.7,101.3z
	 M7.7,83.4c0-12.1,9.9-22,22-22c12.2,0,22,9.8,22,22s-9.9,22-22,22S7.7,95.5,7.7,83.4z"/>
<path class="st0" d="M94.4,101.5c9.9,0,17.9-8,17.9-17.9s-8-17.9-17.9-17.9s-17.9,8-17.9,17.9S84.5,101.5,94.4,101.5z M72.4,83.6
	c0-12.2,9.9-22,22-22s22,9.8,22,22s-9.9,22-22,22S72.4,95.8,72.4,83.6z"/>
<path class="st0" d="M72.5,29.9c4.6,0,8.3-3.7,8.3-8.3s-3.7-8.3-8.3-8.3s-8.3,3.7-8.3,8.3S67.9,29.9,72.5,29.9z"/>
<path class="st0" d="M72.8,50c-1.2,0-2.5-0.6-3.4-2.1L64,39.5l-11.1,11l10.3,5.4c4.2,2,3.6,5.7,3.6,5.7v23.3c0,2.6-2.1,4.8-4.8,4.8
	c-2.6,0-4.8-2.1-4.8-4.8V66.3l-17.8-9.9c-2.1-1.2-3.6-3.5-3.6-6c0-1.8,0.7-3.4,1.8-4.6l17.5-17.5c2.2-2.5,5.2-2.1,5.2-2.1
	c3.7,0,5.6,3.2,5.6,3.2L75,43.6h13.8c5,0,5,6.5,0,6.5L72.8,50L72.8,50z"/>
<line class="st2" x1="20.5" y1="98.8" x2="26.6" y2="89.2"/>
<path d="M30.1,76.9c-0.1,0-0.1,0-0.2,0c-0.1,0-0.1,0-0.2,0c0,0.2,0,0.3,0,0.5c-0.1,0-0.3,0-0.4,0c-0.1,1.2-0.2,1.9-0.5,2
	c-0.2,0.1-0.7-0.5-1.4-1.5c-0.1,0.1-0.3,0.1-0.4,0.2c-0.1-0.1-0.1-0.3-0.2-0.4c-0.1,0.1-0.3,0.1-0.4,0.2c0.1,0.1,0.1,0.3,0.2,0.4
	c-0.1,0.1-0.3,0.2-0.4,0.2c0.5,1.1,0.8,1.8,0.6,2c-0.2,0.2-0.9-0.1-2-0.6c-0.1,0.1-0.2,0.2-0.2,0.4c-0.1-0.1-0.3-0.1-0.4-0.2
	c-0.1,0.1-0.1,0.2-0.2,0.4c0.1,0.1,0.2,0.1,0.4,0.2c-0.1,0.1-0.1,0.3-0.2,0.4c1,0.7,1.6,1.2,1.5,1.4c-0.1,0.2-0.8,0.4-2,0.5
	c0,0.1,0,0.3,0,0.4c-0.2,0-0.3,0-0.5,0c0,0.1,0,0.1,0,0.2c0,0.1,0,0.1,0,0.2c0.2,0,0.3,0,0.5,0c0,0.1,0,0.3,0,0.4
	c1.2,0.1,1.9,0.2,2,0.5c0.1,0.2-0.5,0.7-1.5,1.4c0.1,0.1,0.1,0.3,0.2,0.4c-0.1,0.1-0.3,0.1-0.4,0.2c0.1,0.1,0.1,0.3,0.2,0.4
	c0.1-0.1,0.3-0.1,0.4-0.2c0.1,0.1,0.2,0.3,0.2,0.4c1.1-0.5,1.8-0.8,2-0.6c0.2,0.2-0.1,0.9-0.6,2c0.1,0.1,0.2,0.2,0.4,0.2
	c-0.1,0.1-0.1,0.3-0.2,0.4c0.1,0.1,0.2,0.1,0.4,0.2c0.1-0.1,0.1-0.2,0.2-0.4c0.1,0.1,0.3,0.1,0.4,0.2c0.7-1,1.2-1.6,1.4-1.5
	c0.2,0.1,0.4,0.8,0.5,2c0.1,0,0.3,0,0.4,0c0,0.2,0,0.3,0,0.5c0.1,0,0.1,0,0.2,0c0.1,0,0.1,0,0.2,0c0-0.2,0-0.3,0-0.5
	c0.1,0,0.3,0,0.4,0c0.1-1.2,0.2-1.9,0.5-2c0.2-0.1,0.7,0.5,1.4,1.5c0.1-0.1,0.3-0.1,0.4-0.2c0.1,0.1,0.1,0.3,0.2,0.4
	c0.1-0.1,0.3-0.1,0.4-0.2c-0.1-0.1-0.1-0.3-0.2-0.4c0.1-0.1,0.3-0.2,0.4-0.2c-0.5-1.1-0.8-1.8-0.6-2c0.2-0.2,0.9,0.1,2,0.6
	c0.1-0.1,0.2-0.2,0.2-0.4c0.1,0.1,0.3,0.1,0.4,0.2c0.1-0.1,0.1-0.2,0.2-0.4c-0.1-0.1-0.2-0.1-0.4-0.2c0.1-0.1,0.1-0.3,0.2-0.4
	c-1-0.7-1.6-1.2-1.5-1.4c0.1-0.2,0.8-0.4,2-0.5c0-0.1,0-0.3,0-0.4c0.2,0,0.3,0,0.5,0c0-0.1,0-0.1,0-0.2c0-0.1,0-0.1,0-0.2
	c-0.2,0-0.3,0-0.5,0c0-0.1,0-0.3,0-0.4c-1.2-0.1-1.9-0.2-2-0.5c-0.1-0.2,0.5-0.7,1.5-1.4c-0.1-0.1-0.1-0.3-0.2-0.4
	c0.1-0.1,0.3-0.1,0.4-0.2c-0.1-0.1-0.1-0.3-0.2-0.4c-0.1,0.1-0.3,0.1-0.4,0.2c-0.1-0.1-0.2-0.3-0.2-0.4c-1.1,0.5-1.8,0.8-2,0.6
	c-0.2-0.2,0.1-0.9,0.6-2c-0.1-0.1-0.2-0.2-0.4-0.2c0.1-0.1,0.1-0.3,0.2-0.4c-0.1-0.1-0.2-0.1-0.4-0.2c-0.1,0.1-0.1,0.3-0.2,0.4
	c-0.1-0.1-0.3-0.1-0.4-0.2c-0.7,1-1.2,1.6-1.4,1.5c-0.2-0.1-0.4-0.8-0.5-2c-0.1,0-0.3,0-0.4,0C30.1,77.2,30.1,77.1,30.1,76.9
	L30.1,76.9z M29.6,80.5c0,0.1,0,0.2,0,0.2c0.1,0,0.1,0,0.2,0c0.1,0,0.1,0,0.2,0c0-0.1,0-0.2,0-0.2c0.4,0,0.8,0.1,1.2,0.3
	c0,0.1-0.1,0.1-0.1,0.2c0.1,0.1,0.2,0.1,0.4,0.2c0-0.1,0.1-0.1,0.1-0.2c0.3,0.2,0.6,0.5,0.8,0.8c-0.1,0-0.1,0.1-0.2,0.1
	c0.1,0.1,0.1,0.2,0.2,0.4c0.1,0,0.1-0.1,0.2-0.1c0.2,0.4,0.3,0.8,0.3,1.2c-0.1,0-0.2,0-0.2,0c0,0.1,0,0.1,0,0.2c0,0.1,0,0.1,0,0.2
	c0.1,0,0.2,0,0.2,0c0,0.4-0.1,0.8-0.3,1.2c-0.1,0-0.1-0.1-0.2-0.1c-0.1,0.1-0.1,0.2-0.2,0.4c0.1,0,0.1,0.1,0.2,0.1
	c-0.2,0.3-0.5,0.6-0.8,0.8c0-0.1-0.1-0.1-0.1-0.2c-0.1,0.1-0.2,0.1-0.4,0.2c0,0.1,0.1,0.1,0.1,0.2c-0.4,0.2-0.8,0.3-1.2,0.3
	c0-0.1,0-0.2,0-0.2c-0.1,0-0.1,0-0.2,0c-0.1,0-0.1,0-0.2,0c0,0.1,0,0.2,0,0.2c-0.4,0-0.8-0.1-1.2-0.3c0-0.1,0.1-0.1,0.1-0.2
	c-0.1-0.1-0.2-0.1-0.4-0.2c0,0.1-0.1,0.1-0.1,0.2c-0.3-0.2-0.6-0.5-0.8-0.8c0.1,0,0.1-0.1,0.2-0.1c-0.1-0.1-0.1-0.2-0.2-0.4
	c-0.1,0-0.1,0.1-0.2,0.1c-0.2-0.4-0.3-0.8-0.3-1.2c0.1,0,0.2,0,0.2,0c0-0.1,0-0.1,0-0.2c0-0.1,0-0.1,0-0.2c-0.1,0-0.2,0-0.2,0
	c0-0.4,0.1-0.8,0.3-1.2c0.1,0,0.1,0.1,0.2,0.1c0.1-0.1,0.1-0.2,0.2-0.4c-0.1,0-0.1-0.1-0.2-0.1c0.2-0.3,0.5-0.6,0.8-0.8
	c0,0.1,0.1,0.1,0.1,0.2c0.1-0.1,0.2-0.1,0.4-0.2c0-0.1-0.1-0.1-0.1-0.2C28.8,80.7,29.2,80.5,29.6,80.5L29.6,80.5z"/>
</svg>
