<?xml version="1.0" encoding="utf-8"?>
<!-- Generator: Adobe Illustrator 21.1.0, SVG Export Plug-In . SVG Version: 6.00 Build 0)  -->
<svg version="1.1" id="Camada_1" xmlns="http://www.w3.org/2000/svg" xmlns:xlink="http://www.w3.org/1999/xlink" x="0px" y="0px"
	 viewBox="0 0 123.5 123.5" style="enable-background:new 0 0 123.5 123.5;" xml:space="preserve">
<style type="text/css">
	.st0{fill:#FFFFFF;}
</style>
<path class="st0" d="M29.7,101.3c9.9,0,17.9-8,17.9-17.9s-8-17.9-17.9-17.9s-17.9,8-17.9,17.9C11.8,93.3,19.8,101.3,29.7,101.3z
	 M7.7,83.4c0-12.1,9.9-22,22-22c12.2,0,22,9.8,22,22s-9.9,22-22,22S7.7,95.5,7.7,83.4z"/>
<path class="st0" d="M94.4,101.5c9.9,0,17.9-8,17.9-17.9s-8-17.9-17.9-17.9s-17.9,8-17.9,17.9S84.5,101.5,94.4,101.5z M72.4,83.6
	c0-12.2,9.9-22,22-22s22,9.8,22,22s-9.9,22-22,22S72.4,95.8,72.4,83.6z"/>
<path class="st0" d="M72.8,50c-1.2,0-2.5-0.6-3.4-2.1L64,39.5l-11.1,11l10.3,5.4c4.2,2,3.6,5.7,3.6,5.7v23.3c0,2.6-2.1,4.8-4.8,4.8
	c-2.6,0-4.8-2.1-4.8-4.8V66.3l-17.8-9.9c-2.1-1.2-3.6-3.5-3.6-6c0-1.8,0.7-3.4,1.8-4.6l17.5-17.5c2.2-2.5,5.2-2.1,5.2-2.1
	c3.7,0,5.6,3.2,5.6,3.2L75,43.6h13.8c5,0,5,6.5,0,6.5L72.8,50L72.8,50z"/>
<path class="st0" d="M72.5,29.9c4.6,0,8.3-3.7,8.3-8.3s-3.7-8.3-8.3-8.3s-8.3,3.7-8.3,8.3S67.9,29.9,72.5,29.9z"/>
</svg>
