<?xml version="1.0" encoding="utf-8"?>
<!-- Generator: Adobe Illustrator 21.1.0, SVG Export Plug-In . SVG Version: 6.00 Build 0)  -->
<svg version="1.1" id="Camada_1" xmlns="http://www.w3.org/2000/svg" xmlns:xlink="http://www.w3.org/1999/xlink" x="0px" y="0px"
	 viewBox="0 0 123.5 123.5" style="enable-background:new 0 0 123.5 123.5;" xml:space="preserve">
<style type="text/css">
	.st0{enable-background:new    ;}
	.st1{fill:#FFDD55;}
	.st2{opacity:0.94;enable-background:new    ;}
	.st3{fill:url(#SVGID_1_);}
	.st4{fill:url(#SVGID_2_);}
	.st5{fill:url(#SVGID_3_);}
	.st6{stroke:#000000;stroke-width:0.25;stroke-miterlimit:10;}
	.st7{fill:none;stroke:#000000;stroke-width:0.25;stroke-miterlimit:10;}
	.st8{fill:#993399;}
	.st9{fill:url(#SVGID_4_);stroke:url(#SVGID_5_);stroke-width:3;stroke-linecap:round;stroke-linejoin:round;}
</style>
<g>
	<g class="st0">
		<polygon class="st1" points="16.5,0.3 16.9,9.7 15.9,3.9 16.6,9.8 15.8,6.6 15.4,3.7 15.7,5.9 14.7,1.6 16.1,9.4 14.7,4.7 
			15.4,8.6 12.9,1.3 15.1,9.2 13.2,4.5 14.3,8.2 11.7,2.5 14.2,9.8 12.4,6.7 11.8,5.5 12,6.1 9.9,2.4 13.7,10.9 13.5,10.6 10.3,5.6 
			11.5,7.8 10.2,5.9 12,9.1 8.3,4 12.3,10.4 9.8,7.3 12.3,11 6.5,4.4 11.3,10.6 8.5,7.7 11.6,11.5 6.2,6.5 12.1,12.8 9.8,11.1 
			4.6,7.2 11.4,13.2 5.8,9.8 6.5,10.3 6.3,10.2 8.1,11.6 9,12.2 3.3,9.1 8.8,12.9 6,11.4 9.4,13.3 9.8,13.6 1.8,10.2 8,13.6 
			4.9,12.3 8.6,13.9 10,14.7 6.2,13.5 2.4,12.1 5.2,13.2 4.2,12.8 6.5,13.9 4.8,13.4 9.7,15.6 9.3,15.5 1.2,13.4 7.7,15.2 3.8,14.5 
			6.7,15.5 1.2,14.7 4,15.5 3.9,15.5 4,15.5 7.6,16.5 5.2,16.4 3.9,16.3 4.8,16.4 0.2,16.2 8,17.6 7.4,17.6 3.2,17.6 6.1,17.7 
			3.3,17.9 6.8,18.2 0.6,18.3 9.1,18.4 9.2,18.4 4.3,19 10.2,18.8 4.7,19.5 3.9,19.6 0,20.1 9.1,19.2 3.9,20.4 8,19.8 5.2,20.6 
			3.5,21 4.6,20.8 1.7,21.7 9.8,20.1 4.3,21.8 8.3,20.7 1.4,23.4 9.7,20.9 4.2,23.3 10.1,20.9 4.8,23.6 5.6,23.3 2.2,25 7.8,22.5 
			10.1,21.5 5.8,24.2 11.2,21.3 2.3,26.8 11,21.8 6,25.6 9.5,23.3 6.4,25.9 5.8,26.4 6.2,26.1 4.4,27.6 11.8,22.1 7,26.8 8.2,25.9 
			4.9,29.3 10.6,24.1 12,22.9 7.5,28.2 10,25.8 9.2,26.8 8.1,28.2 8.5,27.8 6.4,30.6 12,24.5 11.8,24.8 9.3,28.3 10.5,26.8 
			7.2,32.2 12.5,25.2 10,29.5 12.3,26.2 9.4,32 13.4,25.2 13.9,24.4 11.5,30.1 12.4,28.3 10.5,33.3 14.5,24.9 12.5,31.2 14,27.4 
			13.8,28.1 13,31 13.2,30.4 12.3,33.7 14.6,27.1 13.6,31.2 14.9,27.9 13.7,34.9 15.4,27.8 14.8,32.1 15.6,29.2 15.1,34.7 
			15.8,31.5 15.7,32 15.9,30.9 16.6,27.4 16.7,35.6 17.7,27 18.2,32.4 18.3,27.9 19.1,34.6 18.3,26.3 19.3,31.4 19,26.4 20.8,35.1 
			19.2,26.6 20.7,31.7 20.3,28.8 22,33.9 20.5,26.8 21.7,29.4 22.3,31 21.9,29.9 23.8,34.1 21.2,25.9 21.6,26.6 23.8,31 22.5,28.2 
			23.9,30.6 22.8,28 25.5,32.9 21.7,25.6 24.6,30 20.8,23.2 27.4,32.7 22.7,25.5 26.1,29.8 23,25.3 28.1,31.3 24.7,26.8 26.7,29.2 
			22.6,24 26.6,28 25.6,26.6 29.9,30.7 23.5,23.9 23.2,23.5 28,27.5 26.2,25.6 28.6,27.5 27.3,26.3 30.3,28.5 25.3,23.8 31.8,27.6 
			25.6,22.7 28.9,24.3 30.2,25 29.4,24.5 29.9,24.7 26.3,22.4 32.7,25.4 25.3,21.6 30.3,23.6 23.5,20.6 22.8,20.1 27.4,21.8 
			30.5,22.9 30.1,22.8 34,24.2 26,21 31.4,22.5 25.6,20.6 34,22.5 31.1,21.7 26.6,20.4 30.5,21 26.1,19.9 35.1,21 26.2,19.5 
			31.4,19.8 27.8,19.3 33.8,19.3 31.2,19.1 32.1,19.1 30,19 25.6,18.5 29,18.2 31.1,18.1 30.4,18.1 34.6,17.8 25,17.7 31.7,16.8 
			29.2,16.9 31.4,16.5 28.6,16.8 33.9,15.8 26.3,16.6 31.2,15.5 27.7,15.9 34.4,14 26.5,15.7 31.5,14 27.5,14.9 33.6,12.5 
			28.8,13.9 30.4,13.3 25.9,14.6 33.7,10.7 28.9,12.6 30.5,11.8 25.3,13.9 25.4,13.9 32.2,10 29.2,11.5 30.1,10.8 25.6,13.1 
			24,13.9 29.2,10.4 28.1,11 28.9,10.4 28.6,10.6 32,8.2 23.8,13.1 28.9,8.9 27.8,9.7 28.6,8.9 24.6,11.9 30.2,6.7 24.6,11 
			27.1,8.6 23.1,12.3 27,7.9 26.8,8.1 29.6,5 24.2,10 26.5,7.3 22.7,11.5 26.4,6.5 25.1,8 27.3,5 21.9,11.6 21.7,11.8 24.9,6.3 
			23.7,8.1 24.6,6.7 23.7,7.9 26.4,3.5 21.2,11.3 24,5.1 22.9,7.1 23.7,5.5 21.6,9.4 24.3,2.6 21,9.3 22.4,5.4 20.8,8.9 23.1,1.3 
			20.2,8.6 21.3,4.4 19.9,8.6 20.8,4 20.3,5.8 21.1,1.9 19.6,7 20.1,4.4 19.4,7.7 18.6,10.8 19,6.8 19.2,4.7 19.2,4.8 19.6,0.9 
			18.6,6.3 18.8,3.5 18.5,7.1 17.9,10.5 17.9,10.1 18.2,1.1 17.9,5.6 17.9,3.9 17.6,8.5 17.2,4.4 17.4,10.5 17.3,11.8 17.3,11.6 
			16.8,4.2 16.9,6.1 16.5,0.3 		"/>
	</g>
	<g class="st2">
		<circle class="st1" cx="17.5" cy="18.5" r="8.6"/>
	</g>
	
		<radialGradient id="SVGID_1_" cx="197.1844" cy="-213.5575" r="12.234" gradientTransform="matrix(0.6101 -2.352983e-02 -3.453768e-02 -0.8955 -113.0405 -164.7171)" gradientUnits="userSpaceOnUse">
		<stop  offset="0" style="stop-color:#FFFF00"/>
		<stop  offset="1" style="stop-color:#FEA917"/>
	</radialGradient>
	<path class="st3" d="M25,18.3c0,4.1-3.3,7.5-7.5,7.5S10,22.4,10,18.3s3.3-7.5,7.5-7.5S25,14.2,25,18.3z"/>
	<g>
		
			<linearGradient id="SVGID_2_" gradientUnits="userSpaceOnUse" x1="232.0118" y1="-423.9134" x2="261.086" y2="-395.3292" gradientTransform="matrix(0.5617 0 0 -0.5617 -122.3579 -210.3555)">
			<stop  offset="0" style="stop-color:#FFFF00"/>
			<stop  offset="1" style="stop-color:#FFFF00;stop-opacity:0"/>
		</linearGradient>
		<circle class="st4" cx="17.6" cy="18.3" r="6.9"/>
	</g>
	
		<linearGradient id="SVGID_3_" gradientUnits="userSpaceOnUse" x1="253.7062" y1="-381.1669" x2="249.2131" y2="-406.7427" gradientTransform="matrix(0.5617 0 0 -0.5617 -122.3579 -210.3555)">
		<stop  offset="0" style="stop-color:#FFFFFF"/>
		<stop  offset="1" style="stop-color:#FFFFFF;stop-opacity:0"/>
	</linearGradient>
	<path class="st5" d="M24.5,18.3c0,3.8-3.1,6.9-6.9,6.9s-6.9-3.1-6.9-6.9s3.1-6.9,6.9-6.9S24.5,14.5,24.5,18.3z"/>
</g>
<path class="st6" d="M20.5,98.8c2.5-3.9,4.9-7.7,7.4-11.6"/>
<line class="st7" x1="35.6" y1="87" x2="45.6" y2="91.8"/>
<path class="st8" d="M29.7,101.3c9.9,0,17.9-8,17.9-17.9s-8-17.9-17.9-17.9s-17.9,8-17.9,17.9C11.8,93.3,19.8,101.3,29.7,101.3z
	 M7.7,83.4c0-12.1,9.9-22,22-22c12.2,0,22,9.8,22,22s-9.9,22-22,22S7.7,95.5,7.7,83.4z"/>
<path class="st8" d="M94.4,101.5c9.9,0,17.9-8,17.9-17.9s-8-17.9-17.9-17.9s-17.9,8-17.9,17.9S84.5,101.5,94.4,101.5z M72.4,83.6
	c0-12.2,9.9-22,22-22s22,9.8,22,22s-9.9,22-22,22S72.4,95.8,72.4,83.6z"/>
<path class="st8" d="M72.8,50c-1.2,0-2.5-0.6-3.4-2.1L64,39.5l-11.1,11l10.3,5.4c4.2,2,3.6,5.7,3.6,5.7v23.3c0,2.6-2.1,4.8-4.8,4.8
	c-2.6,0-4.8-2.1-4.8-4.8V66.3l-17.8-9.9c-2.1-1.2-3.6-3.5-3.6-6c0-1.8,0.7-3.4,1.8-4.6l17.5-17.5c2.2-2.5,5.2-2.1,5.2-2.1
	c3.7,0,5.6,3.2,5.6,3.2L75,43.6h13.8c5,0,5,6.5,0,6.5L72.8,50L72.8,50z"/>
<path class="st6" d="M31.6,80.4c2.6-4.1,5.2-8,7.7-12.1"/>
<path d="M30.1,76.9c-0.1,0-0.1,0-0.2,0s-0.1,0-0.2,0c0,0.2,0,0.3,0,0.5c-0.1,0-0.3,0-0.4,0c-0.1,1.2-0.2,1.9-0.5,2
	c-0.2,0.1-0.7-0.5-1.4-1.5C27.3,78,27.1,78,27,78.1c-0.1-0.1-0.1-0.3-0.2-0.4c-0.1,0.1-0.3,0.1-0.4,0.2c0.1,0.1,0.1,0.3,0.2,0.4
	c-0.1,0.1-0.3,0.2-0.4,0.2c0.5,1.1,0.8,1.8,0.6,2c-0.2,0.2-0.9-0.1-2-0.6c-0.1,0.1-0.2,0.2-0.2,0.4c-0.1-0.1-0.3-0.1-0.4-0.2
	c-0.1,0.1-0.1,0.2-0.2,0.4c0.1,0.1,0.2,0.1,0.4,0.2c-0.1,0.1-0.1,0.3-0.2,0.4c1,0.7,1.6,1.2,1.5,1.4c-0.1,0.2-0.8,0.4-2,0.5
	c0,0.1,0,0.3,0,0.4c-0.2,0-0.3,0-0.5,0c0,0.1,0,0.1,0,0.2s0,0.1,0,0.2c0.2,0,0.3,0,0.5,0c0,0.1,0,0.3,0,0.4c1.2,0.1,1.9,0.2,2,0.5
	c0.1,0.2-0.5,0.7-1.5,1.4c0.1,0.1,0.1,0.3,0.2,0.4c-0.1,0.1-0.3,0.1-0.4,0.2c0.1,0.1,0.1,0.3,0.2,0.4c0.1-0.1,0.3-0.1,0.4-0.2
	c0.1,0.1,0.2,0.3,0.2,0.4c1.1-0.5,1.8-0.8,2-0.6c0.2,0.2-0.1,0.9-0.6,2c0.1,0.1,0.2,0.2,0.4,0.2c-0.1,0.1-0.1,0.3-0.2,0.4
	c0.1,0.1,0.2,0.1,0.4,0.2c0.1-0.1,0.1-0.2,0.2-0.4c0.1,0.1,0.3,0.1,0.4,0.2c0.7-1,1.2-1.6,1.4-1.5c0.2,0.1,0.4,0.8,0.5,2
	c0.1,0,0.3,0,0.4,0c0,0.2,0,0.3,0,0.5c0.1,0,0.1,0,0.2,0s0.1,0,0.2,0c0-0.2,0-0.3,0-0.5c0.1,0,0.3,0,0.4,0c0.1-1.2,0.2-1.9,0.5-2
	c0.2-0.1,0.7,0.5,1.4,1.5c0.1-0.1,0.3-0.1,0.4-0.2c0.1,0.1,0.1,0.3,0.2,0.4c0.1-0.1,0.3-0.1,0.4-0.2c-0.1-0.1-0.1-0.3-0.2-0.4
	c0.1-0.1,0.3-0.2,0.4-0.2c-0.5-1.1-0.8-1.8-0.6-2s0.9,0.1,2,0.6c0.1-0.1,0.2-0.2,0.2-0.4c0.1,0.1,0.3,0.1,0.4,0.2
	c0.1-0.1,0.1-0.2,0.2-0.4c-0.1-0.1-0.2-0.1-0.4-0.2c0.1-0.1,0.1-0.3,0.2-0.4c-1-0.7-1.6-1.2-1.5-1.4c0.1-0.2,0.8-0.4,2-0.5
	c0-0.1,0-0.3,0-0.4c0.2,0,0.3,0,0.5,0c0-0.1,0-0.1,0-0.2s0-0.1,0-0.2c-0.2,0-0.3,0-0.5,0c0-0.1,0-0.3,0-0.4c-1.2-0.1-1.9-0.2-2-0.5
	c-0.1-0.2,0.5-0.7,1.5-1.4c-0.1-0.1-0.1-0.3-0.2-0.4c0.1-0.1,0.3-0.1,0.4-0.2c-0.1-0.1-0.1-0.3-0.2-0.4c-0.1,0.1-0.3,0.1-0.4,0.2
	C35.1,80.2,35,80,35,79.9c-1.1,0.5-1.8,0.8-2,0.6c-0.2-0.2,0.1-0.9,0.6-2c-0.1-0.1-0.2-0.2-0.4-0.2c0.1-0.1,0.1-0.3,0.2-0.4
	c-0.1-0.1-0.2-0.1-0.4-0.2c-0.1,0.1-0.1,0.3-0.2,0.4c-0.1-0.1-0.3-0.1-0.4-0.2c-0.7,1-1.2,1.6-1.4,1.5c-0.2-0.1-0.4-0.8-0.5-2
	c-0.1,0-0.3,0-0.4,0C30.1,77.2,30.1,77.1,30.1,76.9L30.1,76.9z M29.6,80.5c0,0.1,0,0.2,0,0.2c0.1,0,0.1,0,0.2,0s0.1,0,0.2,0
	c0-0.1,0-0.2,0-0.2c0.4,0,0.8,0.1,1.2,0.3c0,0.1-0.1,0.1-0.1,0.2c0.1,0.1,0.2,0.1,0.4,0.2c0-0.1,0.1-0.1,0.1-0.2
	c0.3,0.2,0.6,0.5,0.8,0.8c-0.1,0-0.1,0.1-0.2,0.1c0.1,0.1,0.1,0.2,0.2,0.4c0.1,0,0.1-0.1,0.2-0.1c0.2,0.4,0.3,0.8,0.3,1.2
	c-0.1,0-0.2,0-0.2,0c0,0.1,0,0.1,0,0.2s0,0.1,0,0.2c0.1,0,0.2,0,0.2,0c0,0.4-0.1,0.8-0.3,1.2c-0.1,0-0.1-0.1-0.2-0.1
	c-0.1,0.1-0.1,0.2-0.2,0.4c0.1,0,0.1,0.1,0.2,0.1c-0.2,0.3-0.5,0.6-0.8,0.8c0-0.1-0.1-0.1-0.1-0.2c-0.1,0.1-0.2,0.1-0.4,0.2
	c0,0.1,0.1,0.1,0.1,0.2c-0.4,0.2-0.8,0.3-1.2,0.3c0-0.1,0-0.2,0-0.2c-0.1,0-0.1,0-0.2,0s-0.1,0-0.2,0c0,0.1,0,0.2,0,0.2
	c-0.4,0-0.8-0.1-1.2-0.3c0-0.1,0.1-0.1,0.1-0.2c-0.1-0.1-0.2-0.1-0.4-0.2c0,0.1-0.1,0.1-0.1,0.2c-0.3-0.2-0.6-0.5-0.8-0.8
	c0.1,0,0.1-0.1,0.2-0.1c-0.1-0.1-0.1-0.2-0.2-0.4c-0.1,0-0.1,0.1-0.2,0.1c-0.2-0.4-0.3-0.8-0.3-1.2c0.1,0,0.2,0,0.2,0
	c0-0.1,0-0.1,0-0.2s0-0.1,0-0.2c-0.1,0-0.2,0-0.2,0c0-0.4,0.1-0.8,0.3-1.2c0.1,0,0.1,0.1,0.2,0.1c0.1-0.1,0.1-0.2,0.2-0.4
	c-0.1,0-0.1-0.1-0.2-0.1c0.2-0.3,0.5-0.6,0.8-0.8c0,0.1,0.1,0.1,0.1,0.2c0.1-0.1,0.2-0.1,0.4-0.2c0-0.1-0.1-0.1-0.1-0.2
	C28.8,80.7,29.2,80.5,29.6,80.5L29.6,80.5z"/>
<path class="st6" d="M32.9,81.8c4.2-2.3,8.4-4.7,12.5-7"/>
<path class="st6" d="M14.3,92.5c4.2-2.4,8.4-4.8,12.6-7.1"/>
<path class="st7" d="M29.9,79.9c0-4.8,0-9.6,0-14.4"/>
<path class="st7" d="M29.9,101.3c0-4.6,0-9.2,0-13.8"/>
<path class="st7" d="M25.9,83.6c-4.7,0-9.4,0-14.1,0"/>
<path class="st7" d="M47.6,83.6c-4.6,0-9.2,0-13.8,0"/>
<line class="st7" x1="24.1" y1="80.3" x2="14" y2="74.8"/>
<line class="st7" x1="33.1" y1="89.3" x2="39" y2="98.7"/>
<line class="st7" x1="26.6" y1="77.9" x2="20.8" y2="67.9"/>
<path d="M29.9,75.8c-0.1,0-0.3,0-0.4,0c0,0.6,0,1.2,0,1.7c0.1,0,0.2,0,0.3,0c0,0.4,0,0.8,0,1.3c-0.1,0-0.2,0-0.4,0
	c-0.1,0.9-0.2,1.5-0.4,1.5c-0.2,0-0.6-0.4-1.1-1.2c-0.1,0-0.2,0.1-0.3,0.2c-0.3-0.4-0.5-0.8-0.7-1.1c0.1,0,0.2-0.1,0.3-0.1
	c-0.3-0.4-0.6-0.9-0.9-1.4c-0.3,0.1-0.5,0.3-0.7,0.4c0.3,0.5,0.6,1,0.8,1.5c0.1-0.1,0.2-0.1,0.3-0.2c0.2,0.3,0.4,0.7,0.6,1.1
	c-0.1,0.1-0.2,0.1-0.3,0.2c0.4,0.8,0.6,1.4,0.5,1.5c-0.1,0.1-0.7-0.1-1.5-0.5c-0.1,0.1-0.1,0.2-0.2,0.3c-0.4-0.3-0.8-0.5-1.2-0.6
	c0.1-0.1,0.1-0.2,0.2-0.3c-0.5-0.2-1-0.5-1.5-0.8c-0.2,0.2-0.3,0.5-0.4,0.7c0.5,0.3,1,0.6,1.5,0.9c0-0.1,0.1-0.2,0.1-0.3
	c0.3,0.2,0.7,0.4,1.1,0.7c-0.1,0.1-0.1,0.2-0.2,0.3c0.8,0.5,1.2,0.9,1.2,1.1c0,0.2-0.6,0.3-1.5,0.4c0,0.1,0,0.2,0,0.4
	c-0.1,0-0.2,0-0.2,0c-0.4,0-0.8,0-1.1,0c0-0.1,0-0.2,0-0.3c-0.5,0-1.1,0-1.7,0c0,0.1,0,0.3,0,0.4c0,0.1,0,0.3,0,0.4
	c0.6,0,1.2,0,1.7,0c0-0.1,0-0.2,0-0.3c0.4,0,0.8,0,1.3,0c0,0.1,0,0.2,0,0.4c0.9,0.1,1.5,0.2,1.5,0.4c0,0.2-0.4,0.6-1.2,1.1
	c0,0.1,0.1,0.2,0.2,0.3c-0.4,0.2-0.8,0.5-1.1,0.7c-0.1-0.1-0.1-0.2-0.1-0.3c-0.4,0.3-0.9,0.6-1.5,0.9c0.1,0.2,0.3,0.5,0.4,0.7
	c0.5-0.3,1-0.6,1.5-0.8c-0.1-0.1-0.1-0.2-0.2-0.3c0.3-0.2,0.7-0.4,1.2-0.6c0.1,0.1,0.1,0.2,0.2,0.3c0.8-0.4,1.4-0.6,1.5-0.5
	c0.1,0.1-0.1,0.7-0.5,1.5c0.1,0.1,0.2,0.1,0.3,0.2c-0.3,0.4-0.5,0.8-0.6,1.1c-0.1-0.1-0.2-0.1-0.3-0.2c-0.2,0.5-0.5,1-0.8,1.5
	c0.2,0.2,0.5,0.3,0.7,0.4c0.3-0.5,0.6-1,0.9-1.5C27.1,89,27,89,27,88.9c0.2-0.3,0.4-0.7,0.7-1.1c0.1,0.1,0.2,0.1,0.3,0.2
	c0.5-0.8,0.9-1.2,1.1-1.2c0.2,0,0.3,0.6,0.4,1.5c0.1,0,0.2,0,0.4,0c0,0.5,0,1,0,1.3c-0.1,0-0.2,0-0.3,0c0,0.5,0,1.1,0,1.7
	c0.1,0,0.3,0,0.4,0c0.1,0,0.3,0,0.4,0c0-0.6,0-1.2,0-1.7c-0.1,0-0.2,0-0.3,0c0-0.4,0-0.8,0-1.3c0.1,0,0.2,0,0.4,0
	c0.1-0.9,0.2-1.5,0.4-1.5c0.2,0,0.6,0.4,1.1,1.2c0.1,0,0.2-0.1,0.3-0.2c0.2,0.4,0.5,0.8,0.7,1.1c-0.1,0-0.2,0.1-0.3,0.1
	c0.3,0.4,0.6,0.9,0.9,1.4c0.3-0.1,0.5-0.3,0.7-0.4c-0.3-0.5-0.6-1-0.8-1.5c-0.1,0.1-0.2,0.1-0.3,0.2c-0.2-0.3-0.4-0.7-0.6-1.1
	c0.1-0.1,0.2-0.1,0.3-0.2c-0.4-0.8-0.6-1.4-0.5-1.5c0.1-0.1,0.7,0.1,1.5,0.5c0.1-0.1,0.1-0.2,0.2-0.3c0.4,0.3,0.8,0.5,1.2,0.6
	C35.1,86.8,35,86.9,35,87c0.5,0.2,1,0.5,1.5,0.8c0.2-0.2,0.3-0.5,0.4-0.7c-0.5-0.3-1-0.6-1.5-0.9c0,0.1-0.1,0.2-0.1,0.3
	c-0.3-0.2-0.7-0.4-1.1-0.7c0.1-0.1,0.1-0.2,0.2-0.3c-0.8-0.5-1.2-0.9-1.2-1.1c0-0.2,0.6-0.3,1.5-0.4c0-0.1,0-0.2,0-0.4
	c0.5,0,1,0,1.3,0c0,0.1,0,0.2,0,0.3c0.5,0,1.1,0,1.7,0c0-0.1,0-0.3,0-0.4c0-0.1,0-0.3,0-0.4c-0.6,0-1.2,0-1.7,0c0,0.1,0,0.2,0,0.3
	c-0.3,0-0.7,0-1.1,0c-0.1,0-0.1,0-0.2,0c0-0.1,0-0.2,0-0.4c-0.9-0.1-1.5-0.2-1.5-0.4c0-0.2,0.4-0.6,1.2-1.1c0-0.1-0.1-0.2-0.2-0.3
	c0.4-0.2,0.8-0.5,1.1-0.7c0.1,0.1,0.1,0.2,0.1,0.3c0.4-0.3,0.9-0.6,1.5-0.9c-0.1-0.2-0.3-0.5-0.4-0.7c-0.5,0.3-1,0.6-1.5,0.8
	c0.1,0.1,0.1,0.2,0.2,0.3c-0.3,0.2-0.7,0.4-1.2,0.6c-0.1-0.1-0.1-0.2-0.2-0.3c-0.8,0.4-1.4,0.6-1.5,0.5c-0.1-0.1,0.1-0.7,0.5-1.5
	c-0.1-0.1-0.2-0.1-0.3-0.2c0.3-0.4,0.5-0.8,0.6-1.1c0.1,0.1,0.2,0.1,0.3,0.2c0.2-0.5,0.5-1,0.8-1.5c-0.2-0.2-0.5-0.3-0.7-0.4
	c-0.3,0.5-0.6,1-0.9,1.5c0.1,0,0.2,0.1,0.3,0.1c-0.2,0.3-0.4,0.7-0.7,1.1c-0.1-0.1-0.2-0.1-0.3-0.2c-0.5,0.8-0.9,1.2-1.1,1.2
	c-0.2,0-0.3-0.6-0.4-1.5c-0.1,0-0.2,0-0.4,0c0-0.5,0-1,0-1.3c0.1,0,0.2,0,0.3,0c0-0.5,0-1.1,0-1.7C30.2,75.8,30,75.8,29.9,75.8
	L29.9,75.8z M29.8,81.2c0,0.1,0,0.3,0,0.4c0,0,0.1,0,0.1,0c0,0,0.1,0,0.1,0c0-0.1,0-0.3,0-0.4c0.3,0,0.6,0.1,0.9,0.2
	c-0.1,0.1-0.1,0.2-0.2,0.3c0.1,0,0.2,0.1,0.3,0.1c0.1-0.1,0.1-0.2,0.2-0.3c0.3,0.2,0.5,0.4,0.7,0.7c-0.1,0.1-0.2,0.1-0.3,0.2
	c0.1,0.1,0.1,0.2,0.1,0.2c0.1-0.1,0.2-0.1,0.3-0.2c0.1,0.3,0.2,0.6,0.3,0.9c-0.1,0-0.3,0-0.4,0c0,0,0,0.1,0,0.1c0,0,0,0.1,0,0.1
	c0.1,0,0.3,0,0.4,0c0,0.3-0.1,0.6-0.3,0.9c-0.1-0.1-0.2-0.1-0.3-0.2c0,0.1-0.1,0.2-0.1,0.2c0.1,0.1,0.2,0.1,0.3,0.2
	c-0.2,0.3-0.4,0.5-0.7,0.7c-0.1-0.1-0.1-0.2-0.2-0.3c-0.1,0.1-0.2,0.1-0.3,0.1c0.1,0.1,0.1,0.2,0.2,0.3c-0.3,0.1-0.6,0.2-0.9,0.2
	c0-0.1,0-0.3,0-0.4c0,0-0.1,0-0.1,0c0,0-0.1,0-0.1,0c0,0.1,0,0.3,0,0.4c-0.3,0-0.6-0.1-0.9-0.2c0.1-0.1,0.1-0.2,0.2-0.3
	c-0.1,0-0.2-0.1-0.3-0.1c-0.1,0.1-0.1,0.2-0.2,0.3c-0.3-0.2-0.5-0.4-0.7-0.7c0.1-0.1,0.2-0.1,0.3-0.2c-0.1-0.1-0.1-0.2-0.1-0.2
	c-0.1,0.1-0.2,0.1-0.3,0.2c-0.1-0.3-0.2-0.6-0.3-0.9c0.1,0,0.3,0,0.4,0c0,0,0-0.1,0-0.1c0,0,0-0.1,0-0.1c-0.1,0-0.3,0-0.4,0
	c0-0.3,0.1-0.6,0.2-0.9c0.1,0.1,0.2,0.1,0.3,0.2c0-0.1,0.1-0.2,0.1-0.2c-0.1-0.1-0.2-0.1-0.3-0.2c0.2-0.3,0.4-0.5,0.7-0.7
	c0.1,0.1,0.1,0.2,0.2,0.3c0.1-0.1,0.2-0.1,0.3-0.1c-0.1-0.1-0.1-0.2-0.2-0.3C29.1,81.3,29.4,81.3,29.8,81.2L29.8,81.2z M29.9,82
	c-0.1,0-0.1,0-0.2,0c0,0.3-0.1,0.5-0.1,0.5c-0.1,0-0.2-0.1-0.4-0.4c-0.1,0-0.2,0.1-0.3,0.2c0.1,0.3,0.2,0.4,0.2,0.5
	c0,0-0.2,0-0.5-0.2c-0.1,0.1-0.1,0.2-0.2,0.3c0.2,0.2,0.4,0.3,0.4,0.3c0,0.1-0.2,0.1-0.5,0.1c0,0.1,0,0.1,0,0.2c0,0.1,0,0.1,0,0.2
	c0.3,0,0.5,0.1,0.5,0.1c0,0.1-0.1,0.2-0.4,0.3c0,0.1,0.1,0.2,0.2,0.3c0.3-0.1,0.5-0.2,0.5-0.2c0,0,0,0.2-0.2,0.5
	c0.1,0.1,0.2,0.1,0.3,0.2c0.2-0.2,0.3-0.4,0.4-0.4c0.1,0,0.1,0.2,0.1,0.5c0.1,0,0.1,0,0.2,0c0.1,0,0.1,0,0.2,0
	c0-0.3,0.1-0.5,0.1-0.5c0.1,0,0.2,0.1,0.4,0.4c0.1,0,0.2-0.1,0.3-0.2c-0.1-0.3-0.2-0.4-0.2-0.5c0,0,0.2,0,0.5,0.2
	c0.1-0.1,0.1-0.2,0.2-0.3c-0.2-0.2-0.4-0.3-0.4-0.3c0-0.1,0.2-0.1,0.5-0.1c0-0.1,0-0.1,0-0.2c0-0.1,0-0.1,0-0.2
	c-0.3,0-0.5-0.1-0.5-0.1c0-0.1,0.1-0.2,0.4-0.3c0-0.1-0.1-0.2-0.2-0.3c-0.3,0.1-0.5,0.2-0.5,0.2c0,0,0-0.2,0.2-0.5
	c-0.1-0.1-0.2-0.1-0.3-0.2c-0.2,0.2-0.3,0.4-0.4,0.4c-0.1,0-0.1-0.2-0.1-0.5C30,82.1,30,82,29.9,82L29.9,82z M29.9,82.8
	c0.4,0,0.8,0.3,0.8,0.8c0,0,0,0,0,0c0,0.4-0.4,0.8-0.8,0.8c-0.4,0-0.8-0.3-0.8-0.8C29.1,83.2,29.5,82.8,29.9,82.8z"/>
<path class="st6" d="M96.3,80.6c2.6-4.1,5.2-8,7.7-12.1"/>
<path class="st6" d="M85.2,99c2.5-3.9,4.9-7.7,7.4-11.6"/>
<path d="M94.8,77.1c-0.1,0-0.1,0-0.2,0c-0.1,0-0.1,0-0.2,0c0,0.2,0,0.3,0,0.5c-0.1,0-0.3,0-0.4,0c-0.1,1.2-0.2,1.9-0.5,2
	c-0.2,0.1-0.7-0.5-1.4-1.5c-0.1,0.1-0.3,0.1-0.4,0.2c-0.1-0.1-0.1-0.3-0.2-0.4c-0.1,0.1-0.3,0.1-0.4,0.2c0.1,0.1,0.1,0.3,0.2,0.4
	c-0.1,0.1-0.3,0.2-0.4,0.2c0.5,1.1,0.8,1.8,0.6,2c-0.2,0.2-0.9-0.1-2-0.6c-0.1,0.1-0.2,0.2-0.2,0.4c-0.1-0.1-0.3-0.1-0.4-0.2
	c-0.1,0.1-0.1,0.2-0.2,0.4c0.1,0.1,0.2,0.1,0.4,0.2C89,81,89,81.2,88.9,81.3c1,0.7,1.6,1.2,1.5,1.4c-0.1,0.2-0.8,0.4-2,0.5
	c0,0.1,0,0.3,0,0.4c-0.2,0-0.3,0-0.5,0c0,0.1,0,0.1,0,0.2s0,0.1,0,0.2c0.2,0,0.3,0,0.5,0c0,0.1,0,0.3,0,0.4c1.2,0.1,1.9,0.2,2,0.5
	c0.1,0.2-0.5,0.7-1.5,1.4c0.1,0.1,0.1,0.3,0.2,0.4c-0.1,0.1-0.3,0.1-0.4,0.2c0.1,0.1,0.1,0.3,0.2,0.4c0.1-0.1,0.3-0.1,0.4-0.2
	c0.1,0.1,0.2,0.3,0.2,0.4c1.1-0.5,1.8-0.8,2-0.6c0.2,0.2-0.1,0.9-0.6,2c0.1,0.1,0.2,0.2,0.4,0.2c-0.1,0.1-0.1,0.3-0.2,0.4
	c0.1,0.1,0.2,0.1,0.4,0.2c0.1-0.1,0.1-0.2,0.2-0.4c0.1,0.1,0.3,0.1,0.4,0.2c0.7-1,1.2-1.6,1.4-1.5c0.2,0.1,0.4,0.8,0.5,2
	c0.1,0,0.3,0,0.4,0c0,0.2,0,0.3,0,0.5c0.1,0,0.1,0,0.2,0c0.1,0,0.1,0,0.2,0c0-0.2,0-0.3,0-0.5c0.1,0,0.3,0,0.4,0
	c0.1-1.2,0.2-1.9,0.5-2c0.2-0.1,0.7,0.5,1.4,1.5c0.1-0.1,0.3-0.1,0.4-0.2c0.1,0.1,0.1,0.3,0.2,0.4c0.1-0.1,0.3-0.1,0.4-0.2
	c-0.1-0.1-0.1-0.3-0.2-0.4c0.1-0.1,0.3-0.2,0.4-0.2c-0.5-1.1-0.8-1.8-0.6-2c0.2-0.2,0.9,0.1,2,0.6c0.1-0.1,0.2-0.2,0.2-0.4
	c0.1,0.1,0.3,0.1,0.4,0.2c0.1-0.1,0.1-0.2,0.2-0.4c-0.1-0.1-0.2-0.1-0.4-0.2c0.1-0.1,0.1-0.3,0.2-0.4c-1-0.7-1.6-1.2-1.5-1.4
	c0.1-0.2,0.8-0.4,2-0.5c0-0.1,0-0.3,0-0.4c0.2,0,0.3,0,0.5,0c0-0.1,0-0.1,0-0.2s0-0.1,0-0.2c-0.2,0-0.3,0-0.5,0c0-0.1,0-0.3,0-0.4
	c-1.2-0.1-1.9-0.2-2-0.5c-0.1-0.2,0.5-0.7,1.5-1.4c-0.1-0.1-0.1-0.3-0.2-0.4c0.1-0.1,0.3-0.1,0.4-0.2c-0.1-0.1-0.1-0.3-0.2-0.4
	c-0.1,0.1-0.3,0.1-0.4,0.2c-0.1-0.1-0.2-0.3-0.2-0.4c-1.1,0.5-1.8,0.8-2,0.6c-0.2-0.2,0.1-0.9,0.6-2c-0.1-0.1-0.2-0.2-0.4-0.2
	c0.1-0.1,0.1-0.3,0.2-0.4C98,78,97.9,78,97.7,77.9c-0.1,0.1-0.1,0.3-0.2,0.4c-0.1-0.1-0.3-0.1-0.4-0.2c-0.7,1-1.2,1.6-1.4,1.5
	c-0.2-0.1-0.4-0.8-0.5-2c-0.1,0-0.3,0-0.4,0C94.8,77.4,94.8,77.3,94.8,77.1L94.8,77.1z M94.3,80.7c0,0.1,0,0.2,0,0.2
	c0.1,0,0.1,0,0.2,0c0.1,0,0.1,0,0.2,0c0-0.1,0-0.2,0-0.2c0.4,0,0.8,0.1,1.2,0.3c0,0.1-0.1,0.1-0.1,0.2c0.1,0.1,0.2,0.1,0.4,0.2
	c0-0.1,0.1-0.1,0.1-0.2c0.3,0.2,0.6,0.5,0.8,0.8c-0.1,0-0.1,0.1-0.2,0.1c0.1,0.1,0.1,0.2,0.2,0.4c0.1,0,0.1-0.1,0.2-0.1
	c0.2,0.4,0.3,0.8,0.3,1.2c-0.1,0-0.2,0-0.2,0c0,0.1,0,0.1,0,0.2s0,0.1,0,0.2c0.1,0,0.2,0,0.2,0c0,0.4-0.1,0.8-0.3,1.2
	c-0.1,0-0.1-0.1-0.2-0.1c-0.1,0.1-0.1,0.2-0.2,0.4c0.1,0,0.1,0.1,0.2,0.1c-0.2,0.3-0.5,0.6-0.8,0.8c0-0.1-0.1-0.1-0.1-0.2
	c-0.1,0.1-0.2,0.1-0.4,0.2c0,0.1,0.1,0.1,0.1,0.2c-0.4,0.2-0.8,0.3-1.2,0.3c0-0.1,0-0.2,0-0.2c-0.1,0-0.1,0-0.2,0
	c-0.1,0-0.1,0-0.2,0c0,0.1,0,0.2,0,0.2c-0.4,0-0.8-0.1-1.2-0.3c0-0.1,0.1-0.1,0.1-0.2c-0.1-0.1-0.2-0.1-0.4-0.2
	c0,0.1-0.1,0.1-0.1,0.2c-0.3-0.2-0.6-0.5-0.8-0.8c0.1,0,0.1-0.1,0.2-0.1c-0.1-0.1-0.1-0.2-0.2-0.4c-0.1,0-0.1,0.1-0.2,0.1
	c-0.2-0.4-0.3-0.8-0.3-1.2c0.1,0,0.2,0,0.2,0c0-0.1,0-0.1,0-0.2s0-0.1,0-0.2c-0.1,0-0.2,0-0.2,0c0-0.4,0.1-0.8,0.3-1.2
	c0.1,0,0.1,0.1,0.2,0.1c0.1-0.1,0.1-0.2,0.2-0.4C92,82.1,92,82,91.9,82c0.2-0.3,0.5-0.6,0.8-0.8c0,0.1,0.1,0.1,0.1,0.2
	c0.1-0.1,0.2-0.1,0.4-0.2c0-0.1-0.1-0.1-0.1-0.2C93.5,80.9,93.9,80.7,94.3,80.7L94.3,80.7z"/>
<path class="st6" d="M97.6,82c4.2-2.3,8.4-4.7,12.5-7"/>
<path class="st6" d="M79,92.7c4.2-2.4,8.4-4.8,12.6-7.1"/>
<path class="st7" d="M94.6,80.1c0-4.8,0-9.6,0-14.4"/>
<path class="st7" d="M94.6,101.5c0-4.6,0-9.2,0-13.8"/>
<path class="st7" d="M90.6,83.8c-4.7,0-9.4,0-14.1,0"/>
<path class="st7" d="M112.3,83.8c-4.6,0-9.2,0-13.8,0"/>
<line class="st7" x1="88.8" y1="80.5" x2="78.7" y2="75"/>
<line class="st7" x1="97.8" y1="89.5" x2="103.7" y2="98.9"/>
<line class="st7" x1="100.3" y1="87.2" x2="110.2" y2="92"/>
<line class="st7" x1="91.3" y1="78.1" x2="85.5" y2="68.1"/>
<path d="M94.6,76.1c-0.1,0-0.3,0-0.4,0c0,0.6,0,1.2,0,1.7c0.1,0,0.2,0,0.3,0c0,0.4,0,0.8,0,1.3c-0.1,0-0.2,0-0.4,0
	c-0.1,0.9-0.2,1.5-0.4,1.5c-0.2,0-0.6-0.4-1.1-1.2c-0.1,0-0.2,0.1-0.3,0.2c-0.3-0.4-0.5-0.8-0.7-1.1c0.1,0,0.2-0.1,0.3-0.1
	c-0.3-0.4-0.6-0.9-0.9-1.4c-0.3,0.1-0.5,0.3-0.7,0.4c0.3,0.5,0.6,1,0.8,1.5c0.1-0.1,0.2-0.1,0.3-0.2c0.2,0.3,0.4,0.7,0.6,1.1
	c-0.1,0.1-0.2,0.1-0.3,0.2c0.4,0.8,0.6,1.4,0.5,1.5c-0.1,0.1-0.7-0.1-1.5-0.5c-0.1,0.1-0.1,0.2-0.2,0.3c-0.4-0.3-0.8-0.5-1.2-0.6
	c0.1-0.1,0.1-0.2,0.2-0.3c-0.5-0.2-1-0.5-1.5-0.8c-0.2,0.2-0.3,0.5-0.4,0.7c0.5,0.3,1,0.6,1.5,0.9c0-0.1,0.1-0.2,0.1-0.3
	c0.3,0.2,0.7,0.4,1.1,0.7c-0.1,0.1-0.1,0.2-0.2,0.3c0.8,0.5,1.2,0.9,1.2,1.1c0,0.2-0.6,0.3-1.5,0.4c0,0.1,0,0.2,0,0.4
	c-0.1,0-0.2,0-0.2,0c-0.4,0-0.8,0-1.1,0c0-0.1,0-0.2,0-0.3c-0.5,0-1.1,0-1.7,0c0,0.1,0,0.3,0,0.4c0,0.1,0,0.3,0,0.4
	c0.6,0,1.2,0,1.7,0c0-0.1,0-0.2,0-0.3c0.4,0,0.8,0,1.3,0c0,0.1,0,0.2,0,0.4c0.9,0.1,1.5,0.2,1.5,0.4c0,0.2-0.4,0.6-1.2,1.1
	c0,0.1,0.1,0.2,0.2,0.3c-0.4,0.2-0.8,0.5-1.1,0.7c-0.1-0.1-0.1-0.2-0.1-0.3c-0.4,0.3-0.9,0.6-1.5,0.9c0.1,0.2,0.3,0.5,0.4,0.7
	c0.5-0.3,1-0.6,1.5-0.8c-0.1-0.1-0.1-0.2-0.2-0.3c0.3-0.2,0.7-0.4,1.2-0.6c0.1,0.1,0.1,0.2,0.2,0.3c0.8-0.4,1.4-0.6,1.5-0.5
	c0.1,0.1-0.1,0.7-0.5,1.5c0.1,0.1,0.2,0.1,0.3,0.2c-0.3,0.4-0.5,0.8-0.6,1.1c-0.1-0.1-0.2-0.1-0.3-0.2c-0.2,0.5-0.5,1-0.8,1.5
	c0.2,0.2,0.5,0.3,0.7,0.4c0.3-0.5,0.6-1,0.9-1.5c-0.1,0-0.2-0.1-0.3-0.1c0.2-0.3,0.4-0.7,0.7-1.1c0.1,0.1,0.2,0.1,0.3,0.2
	c0.5-0.8,0.9-1.2,1.1-1.2c0.2,0,0.3,0.6,0.4,1.5c0.1,0,0.2,0,0.4,0c0,0.5,0,1,0,1.3c-0.1,0-0.2,0-0.3,0c0,0.5,0,1.1,0,1.7
	c0.1,0,0.3,0,0.4,0c0.1,0,0.3,0,0.4,0c0-0.6,0-1.2,0-1.7c-0.1,0-0.2,0-0.3,0c0-0.4,0-0.8,0-1.3c0.1,0,0.2,0,0.4,0
	c0.1-0.9,0.2-1.5,0.4-1.5c0.2,0,0.6,0.4,1.1,1.2c0.1,0,0.2-0.1,0.3-0.2c0.2,0.4,0.5,0.8,0.7,1.1c-0.1,0-0.2,0.1-0.3,0.1
	c0.3,0.4,0.6,0.9,0.9,1.4c0.3-0.1,0.5-0.3,0.7-0.4c-0.3-0.5-0.6-1-0.8-1.5c-0.1,0.1-0.2,0.1-0.3,0.2c-0.2-0.3-0.4-0.7-0.6-1.1
	c0.1-0.1,0.2-0.1,0.3-0.2c-0.4-0.8-0.6-1.4-0.5-1.5c0.1-0.1,0.7,0.1,1.5,0.5c0.1-0.1,0.1-0.2,0.2-0.3c0.4,0.3,0.8,0.5,1.2,0.6
	c-0.1,0.1-0.1,0.2-0.2,0.3c0.5,0.2,1,0.5,1.5,0.8c0.2-0.2,0.3-0.5,0.4-0.7c-0.5-0.3-1-0.6-1.5-0.9c0,0.1-0.1,0.2-0.1,0.3
	c-0.3-0.2-0.7-0.4-1.1-0.7c0.1-0.1,0.1-0.2,0.2-0.3c-0.8-0.5-1.2-0.9-1.2-1.1c0-0.2,0.6-0.3,1.5-0.4c0-0.1,0-0.2,0-0.4
	c0.5,0,1,0,1.3,0c0,0.1,0,0.2,0,0.3c0.5,0,1.1,0,1.7,0c0-0.1,0-0.3,0-0.4c0-0.1,0-0.3,0-0.4c-0.6,0-1.2,0-1.7,0c0,0.1,0,0.2,0,0.3
	c-0.3,0-0.7,0-1.1,0c-0.1,0-0.1,0-0.2,0c0-0.1,0-0.2,0-0.4c-0.9-0.1-1.5-0.2-1.5-0.4c0-0.2,0.4-0.6,1.2-1.1c0-0.1-0.1-0.2-0.2-0.3
	c0.4-0.2,0.8-0.5,1.1-0.7c0.1,0.1,0.1,0.2,0.1,0.3c0.4-0.3,0.9-0.6,1.5-0.9c-0.1-0.2-0.3-0.5-0.4-0.7c-0.5,0.3-1,0.6-1.5,0.8
	c0.1,0.1,0.1,0.2,0.2,0.3c-0.3,0.2-0.7,0.4-1.2,0.6c-0.1-0.1-0.1-0.2-0.2-0.3c-0.8,0.4-1.4,0.6-1.5,0.5c-0.1-0.1,0.1-0.7,0.5-1.5
	c-0.1-0.1-0.2-0.1-0.3-0.2c0.3-0.4,0.5-0.8,0.6-1.1c0.1,0.1,0.2,0.1,0.3,0.2c0.2-0.5,0.5-1,0.8-1.5c-0.2-0.2-0.5-0.3-0.7-0.4
	c-0.3,0.5-0.6,1-0.9,1.5c0.1,0,0.2,0.1,0.3,0.1c-0.2,0.3-0.4,0.7-0.7,1.1c-0.1-0.1-0.2-0.1-0.3-0.2c-0.5,0.8-0.9,1.2-1.1,1.2
	c-0.2,0-0.3-0.6-0.4-1.5c-0.1,0-0.2,0-0.4,0c0-0.5,0-1,0-1.3c0.1,0,0.2,0,0.3,0c0-0.5,0-1.1,0-1.7C94.9,76.1,94.7,76.1,94.6,76.1
	L94.6,76.1z M94.5,81.4c0,0.1,0,0.3,0,0.4c0,0,0.1,0,0.1,0c0,0,0.1,0,0.1,0c0-0.1,0-0.3,0-0.4c0.3,0,0.6,0.1,0.9,0.2
	c-0.1,0.1-0.1,0.2-0.2,0.3c0.1,0,0.2,0.1,0.3,0.1c0.1-0.1,0.1-0.2,0.2-0.3c0.3,0.2,0.5,0.4,0.7,0.7c-0.1,0.1-0.2,0.1-0.3,0.2
	c0.1,0.1,0.1,0.2,0.1,0.2c0.1-0.1,0.2-0.1,0.3-0.2c0.1,0.3,0.2,0.6,0.3,0.9c-0.1,0-0.3,0-0.4,0c0,0,0,0.1,0,0.1c0,0,0,0.1,0,0.1
	c0.1,0,0.3,0,0.4,0c0,0.3-0.1,0.6-0.3,0.9c-0.1-0.1-0.2-0.1-0.3-0.2c0,0.1-0.1,0.2-0.1,0.2c0.1,0.1,0.2,0.1,0.3,0.2
	c-0.2,0.3-0.4,0.5-0.7,0.7c-0.1-0.1-0.1-0.2-0.2-0.3c-0.1,0.1-0.2,0.1-0.3,0.1c0.1,0.1,0.1,0.2,0.2,0.3c-0.3,0.1-0.6,0.2-0.9,0.2
	c0-0.1,0-0.3,0-0.4c0,0-0.1,0-0.1,0c0,0-0.1,0-0.1,0c0,0.1,0,0.3,0,0.4c-0.3,0-0.6-0.1-0.9-0.2c0.1-0.1,0.1-0.2,0.2-0.3
	c-0.1,0-0.2-0.1-0.3-0.1c-0.1,0.1-0.1,0.2-0.2,0.3c-0.3-0.2-0.5-0.4-0.7-0.7c0.1-0.1,0.2-0.1,0.3-0.2c-0.1-0.1-0.1-0.2-0.1-0.2
	c-0.1,0.1-0.2,0.1-0.3,0.2c-0.1-0.3-0.2-0.6-0.3-0.9c0.1,0,0.3,0,0.4,0c0,0,0-0.1,0-0.1c0,0,0-0.1,0-0.1c-0.1,0-0.3,0-0.4,0
	c0-0.3,0.1-0.6,0.2-0.9c0.1,0.1,0.2,0.1,0.3,0.2c0-0.1,0.1-0.2,0.1-0.2c-0.1-0.1-0.2-0.1-0.3-0.2c0.2-0.3,0.4-0.5,0.7-0.7
	c0.1,0.1,0.1,0.2,0.2,0.3c0.1-0.1,0.2-0.1,0.3-0.1c-0.1-0.1-0.1-0.2-0.2-0.3C93.8,81.5,94.1,81.5,94.5,81.4L94.5,81.4z M94.6,82.3
	c-0.1,0-0.1,0-0.2,0c0,0.3-0.1,0.5-0.1,0.5c-0.1,0-0.2-0.1-0.4-0.4c-0.1,0-0.2,0.1-0.3,0.2c0.1,0.3,0.2,0.4,0.2,0.5
	c0,0-0.2,0-0.5-0.2c-0.1,0.1-0.1,0.2-0.2,0.3c0.2,0.2,0.4,0.3,0.4,0.3c0,0.1-0.2,0.1-0.5,0.1c0,0.1,0,0.1,0,0.2c0,0.1,0,0.1,0,0.2
	c0.3,0,0.5,0.1,0.5,0.1c0,0.1-0.1,0.2-0.4,0.3c0,0.1,0.1,0.2,0.2,0.3c0.3-0.1,0.5-0.2,0.5-0.2c0,0,0,0.2-0.2,0.5
	c0.1,0.1,0.2,0.1,0.3,0.2c0.2-0.2,0.3-0.4,0.4-0.4c0.1,0,0.1,0.2,0.1,0.5c0.1,0,0.1,0,0.2,0c0.1,0,0.1,0,0.2,0
	c0-0.3,0.1-0.5,0.1-0.5c0.1,0,0.2,0.1,0.4,0.4c0.1,0,0.2-0.1,0.3-0.2c-0.1-0.3-0.2-0.4-0.2-0.5c0,0,0.2,0,0.5,0.2
	c0.1-0.1,0.1-0.2,0.2-0.3c-0.2-0.2-0.4-0.3-0.4-0.3c0-0.1,0.2-0.1,0.5-0.1c0-0.1,0-0.1,0-0.2c0-0.1,0-0.1,0-0.2
	c-0.3,0-0.5-0.1-0.5-0.1c0-0.1,0.1-0.2,0.4-0.3c0-0.1-0.1-0.2-0.2-0.3c-0.3,0.1-0.5,0.2-0.5,0.2c0,0,0-0.2,0.2-0.5
	c-0.1-0.1-0.2-0.1-0.3-0.2c-0.2,0.2-0.3,0.4-0.4,0.4c-0.1,0-0.1-0.2-0.1-0.5C94.7,82.3,94.7,82.3,94.6,82.3L94.6,82.3z M94.6,83
	c0.4,0,0.8,0.3,0.8,0.8c0,0,0,0,0,0c0,0.4-0.4,0.8-0.8,0.8c-0.4,0-0.8-0.3-0.8-0.8C93.8,83.4,94.2,83,94.6,83z"/>
<linearGradient id="SVGID_4_" gradientUnits="userSpaceOnUse" x1="58.5216" y1="220.0006" x2="58.952" y2="202.5084" gradientTransform="matrix(1 0 0 -1 -25.847 223.587)">
	<stop  offset="0" style="stop-color:#FFFFFF"/>
	<stop  offset="0.9362" style="stop-color:#FFFFFF;stop-opacity:0.5668"/>
	<stop  offset="1" style="stop-color:#FFFFFF;stop-opacity:0.5372"/>
	<stop  offset="1" style="stop-color:#ECECEC;stop-opacity:0.5236"/>
	<stop  offset="1" style="stop-color:#CDCDCD;stop-opacity:0.4965"/>
	<stop  offset="1" style="stop-color:#B1B1B1;stop-opacity:0.4657"/>
	<stop  offset="1" style="stop-color:#9B9B9B;stop-opacity:0.431"/>
	<stop  offset="1" style="stop-color:#8A8A8A;stop-opacity:0.3904"/>
	<stop  offset="1" style="stop-color:#7F7F7F;stop-opacity:0.3403"/>
	<stop  offset="1" style="stop-color:#787878;stop-opacity:0.2699"/>
	<stop  offset="1" style="stop-color:#767676;stop-opacity:7.451000e-02"/>
</linearGradient>
<radialGradient id="SVGID_5_" cx="50.0143" cy="441.8134" r="21.7431" gradientTransform="matrix(0.9768 0 0 -0.481 -15.9731 225.3277)" gradientUnits="userSpaceOnUse">
	<stop  offset="0" style="stop-color:#000000;stop-opacity:0.4524"/>
	<stop  offset="1" style="stop-color:#000000;stop-opacity:0.1071"/>
</radialGradient>
<path class="st9" d="M30.3,3.3C26,3.6,22.6,5.2,21.6,7c-0.6-0.2-1.2-0.3-1.8-0.3c-0.9,0.1-1.8,0.5-2.5,1.1c-0.3,0-0.6-0.1-0.9,0
	c-2,0.2-3.4,1.7-3.3,3.6c0.1,1.5,1.4,2.7,3,3c0.7,1.5,1.9,2.6,3.3,3c0,0,0,0,0,0.1c0.1,1.3,1.8,2.2,3.9,2.1c1.3,1.9,3.8,3.1,6.5,2.9
	c2.9-0.2,5.2-1.9,6-4.2c1.9,0.8,4.3,1.1,6.9,0.9c5.7-0.4,10-3.4,9.8-6.5c-0.2-2.5-3.4-4.5-7.5-4.9c0,0,0,0,0,0
	c-0.1-1.3-2.4-2.2-5.1-2c-0.2,0-0.3,0-0.5,0.1C38.3,4,34.6,2.9,30.3,3.3L30.3,3.3z"/>
<path class="st8" d="M72.5,29.9c4.6,0,8.3-3.7,8.3-8.3s-3.7-8.3-8.3-8.3s-8.3,3.7-8.3,8.3S67.9,29.9,72.5,29.9z"/>
</svg>
