<?xml version="1.0" encoding="utf-8"?>
<!-- Generator: Adobe Illustrator 21.1.0, SVG Export Plug-In . SVG Version: 6.00 Build 0)  -->
<svg version="1.1" id="Camada_1" xmlns="http://www.w3.org/2000/svg" xmlns:xlink="http://www.w3.org/1999/xlink" x="0px" y="0px"
	 viewBox="0 0 400 400" style="enable-background:new 0 0 400 400;" xml:space="preserve">
<style type="text/css">
	.st0{fill:url(#SVGID_1_);}
	.st1{fill:url(#SVGID_2_);}
	.st2{opacity:0.3177;fill:url(#SVGID_3_);enable-background:new    ;}
	.st3{filter:url(#g);}
	.st4{fill:#1A1A1A;}
	.st5{fill:#FFFFFF;}
</style>
<filter  id="g">
	<feGaussianBlur  stdDeviation="1.24347"></feGaussianBlur>
</filter>
<linearGradient id="SVGID_1_" gradientUnits="userSpaceOnUse" x1="216.8329" y1="223.1655" x2="283.2229" y2="132.5755" gradientTransform="matrix(2.3412 0 0 -2.3412 -374.926 633.2266)">
	<stop  offset="0" style="stop-color:#550000"/>
	<stop  offset="1" style="stop-color:#FF0000"/>
</linearGradient>
<path class="st0" d="M330.3,210.9c0,68.6-55.6,124.2-124.2,124.2S82,279.5,82,210.9S137.6,86.7,206.1,86.7S330.3,142.3,330.3,210.9z
	"/>
<radialGradient id="SVGID_2_" cx="94.1176" cy="273.6811" r="53.036" gradientTransform="matrix(-1.3069 -1.3069 -1.5752 1.5752 830.7704 -1.1297)" gradientUnits="userSpaceOnUse">
	<stop  offset="0" style="stop-color:#FFFFFF;stop-opacity:0.4082"/>
	<stop  offset="1" style="stop-color:#FFFFFF;stop-opacity:0"/>
</radialGradient>
<path class="st1" d="M326.6,216.8c0,64.5-52.3,116.8-116.8,116.8S92.9,281.3,92.9,216.8S145.3,99.9,209.8,99.9
	S326.6,152.3,326.6,216.8z"/>
<linearGradient id="SVGID_3_" gradientUnits="userSpaceOnUse" x1="319.3371" y1="259.4157" x2="362.2871" y2="209.5957" gradientTransform="matrix(2.9052 0 0 -2.9052 -817.0956 851.4896)">
	<stop  offset="0" style="stop-color:#FFFFFF"/>
	<stop  offset="1" style="stop-color:#FFFFFF;stop-opacity:0"/>
</linearGradient>
<path class="st2" d="M203.2,94.2c-38.7,0.9-76.1,21.4-96.8,57.4c-22.3,38.7-19.5,85,3.4,120.1c2.5-77.1,61.4-135.1,134.6-130.9
	c24,1.4,46.6,9.3,66.4,22.1c-9.5-21.6-25.6-40.5-47.6-53.2C244.2,98.7,223.5,93.7,203.2,94.2L203.2,94.2z"/>
<g class="st3">
	<polygon class="st4" points="168.5,140.5 134.9,174.1 173.5,212.8 134.9,251.4 168.5,285 207.1,246.4 245.8,285 279.4,251.4 
		240.8,212.8 279.4,174.1 245.8,140.5 207.1,179.1 	"/>
</g>
<path class="st5" d="M170.2,143.6L138,175.8l37,37l-37,36.9l32.2,32.2l36.9-37l37,37l32.2-32.2l-36.9-36.9l36.9-37l-32.2-32.2
	l-37,36.9L170.2,143.6z"/>
</svg>
