<?xml version="1.0" encoding="utf-8"?>
<!-- Generator: Adobe Illustrator 21.1.0, SVG Export Plug-In . SVG Version: 6.00 Build 0)  -->
<svg version="1.1" id="Camada_1" xmlns="http://www.w3.org/2000/svg" xmlns:xlink="http://www.w3.org/1999/xlink" x="0px" y="0px"
	 viewBox="0 0 200 200" style="enable-background:new 0 0 200 200;" xml:space="preserve">
<style type="text/css">
	.st0{opacity:0.96;enable-background:new    ;}
	.st1{fill-opacity:0;}
</style>
<g transform="matrix(2.793 0 0 2.793 -1167.7 -79.649)">
	<g transform="translate(7.8944 -.23955)">
		<g transform="matrix(1 0 0 1.0864 -1.9962 -36.243)">
			<path class="st0" d="M426.8,63.8L426.8,63.8c1,0,1.6,0.5,1.6,1.1v15.5c0,0.5-0.8,1.1-1.6,1.1l0,0c-1,0-1.6-0.5-1.6-1.1V64.9
				C425.1,64.2,425.8,63.8,426.8,63.8z"/>
			<path class="st0" d="M422.7,77.8H436c1.4,0,2.5,0.7,2.5,1.5v4.5c0,0.8-1.2,1.5-2.5,1.5h-13.4c-1.4,0-2.5-0.7-2.5-1.5v-4.5
				C420,78.5,421.2,77.8,422.7,77.8z"/>
			<path class="st0" d="M421.9,63.8L421.9,63.8c1,0,1.6,0.5,1.6,1.1v15.5c0,0.5-0.8,1.1-1.6,1.1l0,0c-1,0-1.6-0.5-1.6-1.1V64.9
				C420,64.2,420.8,63.8,421.9,63.8z"/>
			<path class="st0" d="M431.7,63.8L431.7,63.8c1,0,1.6,0.5,1.6,1.1v15.5c0,0.5-0.8,1.1-1.6,1.1l0,0c-1,0-1.6-0.5-1.6-1.1V64.9
				C430.1,64.2,430.9,63.8,431.7,63.8z"/>
			<path class="st0" d="M436.9,63.8L436.9,63.8c1,0,1.6,0.5,1.6,1.1v15.5c0,0.5-0.8,1.1-1.6,1.1l0,0c-1,0-1.6-0.5-1.6-1.1V64.9
				C435.2,64.2,435.8,63.8,436.9,63.8z"/>
			<path class="st0" d="M428.4,81.5h1.6c1.4,0,3.9,0.7,3.9,1.5l-0.6,19.2l0.6,19.2c0,0.8-2.5,1.5-3.9,1.5h-1.6
				c-1.4,0-3.9-0.7-3.9-1.5l0.6-19.2L424.5,83C424.5,82.2,427,81.5,428.4,81.5L428.4,81.5z"/>
		</g>
	</g>
	<g transform="matrix(1 0 0 .99398 13.808 1.4092)">
		<path class="st0" d="M460.2,56.8h3.9c1.8,0,3.3,0.7,3.3,1.5v35.5c0,0.8-1.4,1.5-3.3,1.5h-3.9c-1.8,0-3.3-0.7-3.3-1.5V58.5
			C456.9,57.5,458.3,56.8,460.2,56.8z"/>
		<path class="st0" d="M471.7,41c0,6-4.5,17.4-4.5,17.4c-0.2,0.8-1.4,1.5-3.3,1.5H460c-1.8,0-3.3-0.7-3.3-1.5V30.3
			C466.4,30.3,471.7,36.1,471.7,41L471.7,41z"/>
	</g>
</g>
<rect x="8" class="st1" width="200" height="200"/>
</svg>
