<?xml version="1.0" encoding="utf-8"?>
<!-- Generator: Adobe Illustrator 21.1.0, SVG Export Plug-In . SVG Version: 6.00 Build 0)  -->
<svg version="1.1" id="Camada_1" xmlns="http://www.w3.org/2000/svg" xmlns:xlink="http://www.w3.org/1999/xlink" x="0px" y="0px"
	 viewBox="0 0 200 200" style="enable-background:new 0 0 200 200;" xml:space="preserve">
<style type="text/css">
	.st0{opacity:0.96;enable-background:new    ;}
	.st1{fill-opacity:0;}
</style>
<g transform="matrix(2.793 0 0 2.793 -1167.7 -79.649)">
	<g transform="translate(7.8944 -.23955)">
		<g transform="matrix(1 0 0 1.0864 -1.9962 -36.243)">
			<path class="st0" d="M425,65.5L425,65.5c1,0,1.6,0.5,1.6,1.1v14.8c0,0.5-0.8,1.1-1.6,1.1l0,0c-1,0-1.6-0.5-1.6-1.1V66.5
				C423.4,65.9,424,65.5,425,65.5z"/>
			<path class="st0" d="M420.9,78.9h13.4c1.4,0,2.5,0.7,2.5,1.4v4.3c0,0.8-1.2,1.4-2.5,1.4h-13.4c-1.4,0-2.5-0.7-2.5-1.4v-4.3
				C418.2,79.5,419.4,78.9,420.9,78.9z"/>
			<path class="st0" d="M420.1,65.5L420.1,65.5c1,0,1.6,0.5,1.6,1.1v14.8c0,0.5-0.8,1.1-1.6,1.1l0,0c-1,0-1.6-0.5-1.6-1.1V66.5
				C418.2,65.9,419,65.5,420.1,65.5z"/>
			<path class="st0" d="M429.9,65.5L429.9,65.5c1,0,1.6,0.5,1.6,1.1v14.8c0,0.5-0.8,1.1-1.6,1.1l0,0c-1,0-1.6-0.5-1.6-1.1V66.5
				C428.3,65.9,429.1,65.5,429.9,65.5z"/>
			<path class="st0" d="M435.1,65.5L435.1,65.5c1,0,1.6,0.5,1.6,1.1v14.8c0,0.5-0.8,1.1-1.6,1.1l0,0c-1,0-1.6-0.5-1.6-1.1V66.5
				C433.4,65.9,434,65.5,435.1,65.5z"/>
			<path class="st0" d="M426.6,82.4h1.6c1.4,0,3.9,0.7,3.9,1.4l-0.6,18.4l0.6,18.4c0,0.8-2.5,1.4-3.9,1.4h-1.6
				c-1.4,0-3.9-0.7-3.9-1.4l0.6-18.4l-0.6-18.4C422.7,83.1,425.2,82.4,426.6,82.4L426.6,82.4z"/>
		</g>
	</g>
	<g transform="matrix(1 0 0 .99398 13.808 1.4092)">
		<path class="st0" d="M458.4,57.5h3.9c1.8,0,3.3,0.7,3.3,1.4v34c0,0.8-1.4,1.4-3.3,1.4h-3.9c-1.8,0-3.3-0.7-3.3-1.4V59.1
			C455.1,58.2,456.6,57.5,458.4,57.5z"/>
		<path class="st0" d="M469.9,42.4c0,5.8-4.5,16.7-4.5,16.7c-0.2,0.8-1.4,1.4-3.3,1.4h-3.9c-1.8,0-3.3-0.7-3.3-1.4V32.2
			C464.6,32.2,469.9,37.7,469.9,42.4L469.9,42.4z"/>
	</g>
</g>
<rect x="3" y="5.5" class="st1" width="200" height="191.5"/>
</svg>
