<?xml version="1.0" encoding="utf-8"?>
<!-- Generator: Adobe Illustrator 21.1.0, SVG Export Plug-In . SVG Version: 6.00 Build 0)  -->
<svg version="1.1" id="Camada_1" xmlns="http://www.w3.org/2000/svg" xmlns:xlink="http://www.w3.org/1999/xlink" x="0px" y="0px"
	 viewBox="0 0 200 200" style="enable-background:new 0 0 200 200;" xml:space="preserve">
<style type="text/css">
	.st0{opacity:0.96;enable-background:new    ;}
	.st1{fill-opacity:0;}
</style>
<g transform="matrix(2.793 0 0 2.793 -1167.7 -79.649)">
	<g transform="translate(7.8944 -.23955)">
		<g transform="matrix(1 0 0 1.0864 -1.9962 -36.243)">
			<path class="st0" d="M431.2,63.8L431.2,63.8c0.7,0,1.2,0.5,1.2,1.1v15.5c0,0.5-0.6,1.1-1.2,1.1l0,0c-0.7,0-1.2-0.5-1.2-1.1V64.9
				C430,64.2,430.4,63.8,431.2,63.8z"/>
			<path class="st0" d="M428.2,77.8h9.7c1,0,1.8,0.7,1.8,1.5v4.5c0,0.8-0.9,1.5-1.8,1.5h-9.7c-1,0-1.8-0.7-1.8-1.5v-4.5
				C426.2,78.5,427.1,77.8,428.2,77.8z"/>
			<path class="st0" d="M427.6,63.8L427.6,63.8c0.7,0,1.2,0.5,1.2,1.1v15.5c0,0.5-0.6,1.1-1.2,1.1l0,0c-0.7,0-1.2-0.5-1.2-1.1V64.9
				C426.2,64.2,426.8,63.8,427.6,63.8z"/>
			<path class="st0" d="M434.8,63.8L434.8,63.8c0.7,0,1.2,0.5,1.2,1.1v15.5c0,0.5-0.6,1.1-1.2,1.1l0,0c-0.7,0-1.2-0.5-1.2-1.1V64.9
				C433.6,64.2,434.2,63.8,434.8,63.8z"/>
			<path class="st0" d="M438.5,63.8L438.5,63.8c0.7,0,1.2,0.5,1.2,1.1v15.5c0,0.5-0.6,1.1-1.2,1.1l0,0c-0.7,0-1.2-0.5-1.2-1.1V64.9
				C437.3,64.2,437.8,63.8,438.5,63.8z"/>
			<path class="st0" d="M432.4,81.5h1.2c1,0,2.8,0.7,2.8,1.5l-0.4,19.2l0.4,19.2c0,0.8-1.8,1.5-2.8,1.5h-1.2c-1,0-2.8-0.7-2.8-1.5
				l0.4-19.2L429.5,83C429.5,82.2,431.3,81.5,432.4,81.5L432.4,81.5z"/>
		</g>
	</g>
	<g transform="matrix(1 0 0 .99398 13.808 1.4092)">
		<path class="st0" d="M453.3,56.8h2.8c1.3,0,2.4,0.7,2.4,1.5v35.5c0,0.8-1,1.5-2.4,1.5h-2.8c-1.3,0-2.4-0.7-2.4-1.5V58.5
			C450.9,57.5,452,56.8,453.3,56.8z"/>
		<path class="st0" d="M461.7,41c0,6-3.3,17.4-3.3,17.4c-0.1,0.8-1,1.5-2.4,1.5h-2.8c-1.3,0-2.4-0.7-2.4-1.5V30.3
			C457.8,30.3,461.7,36.1,461.7,41L461.7,41z"/>
	</g>
</g>
<rect x="8" class="st1" width="200" height="200"/>
</svg>
