<?xml version="1.0" encoding="utf-8"?>
<!-- Generator: Adobe Illustrator 21.1.0, SVG Export Plug-In . SVG Version: 6.00 Build 0)  -->
<svg version="1.1" id="Camada_1" xmlns="http://www.w3.org/2000/svg" xmlns:xlink="http://www.w3.org/1999/xlink" x="0px" y="0px"
	 viewBox="0 0 200 200" style="enable-background:new 0 0 200 200;" xml:space="preserve">
<style type="text/css">
	.st0{fill:none;stroke:#FFFFFF;stroke-width:5.586;stroke-linecap:round;stroke-dasharray:33.5158,11.1719;stroke-dashoffset:6;}
	.st1{opacity:0.96;fill:#FFFFFF;enable-background:new    ;}
	.st2{fill:#4315FF;fill-opacity:0;}
</style>
<path class="st0" d="M100,16.2L100,16.2c46.3,0,83.8,37.5,83.8,83.8l0,0c0,46.3-37.5,83.8-83.8,83.8l0,0
	c-46.3,0-83.8-37.5-83.8-83.8l0,0C16.2,53.7,53.7,16.2,100,16.2z"/>
<g transform="matrix(2.793 0 0 2.793 -1167.7 -79.649)">
	<g transform="translate(7.8944 -.23955)">
		<g transform="matrix(1 0 0 1.0864 -1.9962 -36.243)">
			<path class="st1" d="M437.1,71.6L437.1,71.6c0.5,0,0.8,0.4,0.8,0.8v11.3c0,0.4-0.4,0.8-0.8,0.8l0,0c-0.5,0-0.8-0.4-0.8-0.8V72.4
				C436.3,71.9,436.6,71.6,437.1,71.6z"/>
			<path class="st1" d="M435.1,81.8h6.5c0.7,0,1.2,0.5,1.2,1.1v3.3c0,0.6-0.6,1.1-1.2,1.1h-6.5c-0.7,0-1.2-0.5-1.2-1.1v-3.3
				C433.8,82.3,434.4,81.8,435.1,81.8z"/>
			<path class="st1" d="M434.7,71.6L434.7,71.6c0.5,0,0.8,0.4,0.8,0.8v11.3c0,0.4-0.4,0.8-0.8,0.8l0,0c-0.5,0-0.8-0.4-0.8-0.8V72.4
				C433.8,71.9,434.2,71.6,434.7,71.6z"/>
			<path class="st1" d="M439.5,71.6L439.5,71.6c0.5,0,0.8,0.4,0.8,0.8v11.3c0,0.4-0.4,0.8-0.8,0.8l0,0c-0.5,0-0.8-0.4-0.8-0.8V72.4
				C438.7,71.9,439.1,71.6,439.5,71.6z"/>
			<path class="st1" d="M442,71.6L442,71.6c0.5,0,0.8,0.4,0.8,0.8v11.3c0,0.4-0.4,0.8-0.8,0.8l0,0c-0.5,0-0.8-0.4-0.8-0.8V72.4
				C441.2,71.9,441.5,71.6,442,71.6z"/>
			<path class="st1" d="M437.9,84.5h0.8c0.7,0,1.9,0.5,1.9,1.1l-0.3,14l0.3,14c0,0.6-1.2,1.1-1.9,1.1h-0.8c-0.7,0-1.9-0.5-1.9-1.1
				l0.3-14l-0.3-14C436,85,437.2,84.5,437.9,84.5L437.9,84.5z"/>
		</g>
	</g>
	<g transform="matrix(1 0 0 .99398 13.808 1.4092)">
		<path class="st1" d="M449.3,58.5h1.9c0.9,0,1.6,0.5,1.6,1.1v25.9c0,0.6-0.7,1.1-1.6,1.1h-1.9c-0.9,0-1.6-0.5-1.6-1.1V59.7
			C447.7,59,448.4,58.5,449.3,58.5z"/>
		<path class="st1" d="M454.9,47c0,4.4-2.2,12.7-2.2,12.7c-0.1,0.6-0.7,1.1-1.6,1.1h-1.9c-0.9,0-1.6-0.5-1.6-1.1V39.2
			C452.3,39.2,454.9,43.4,454.9,47L454.9,47z"/>
	</g>
</g>
<rect class="st2" width="200" height="200"/>
</svg>
