<?xml version="1.0" encoding="utf-8"?>
<!-- Generator: Adobe Illustrator 21.1.0, SVG Export Plug-In . SVG Version: 6.00 Build 0)  -->
<svg version="1.1" id="Camada_1" xmlns="http://www.w3.org/2000/svg" xmlns:xlink="http://www.w3.org/1999/xlink" x="0px" y="0px"
	 viewBox="0 0 1822 1652.7" style="enable-background:new 0 0 1822 1652.7;" xml:space="preserve">
<style type="text/css">
	.st0{fill:none;stroke:#FFFFFF;stroke-width:30;stroke-linecap:round;stroke-linejoin:round;stroke-miterlimit:10;}
	.st1{fill:#FFFFFF;stroke:#FFFFFF;stroke-miterlimit:10;}
</style>
<path d="M1777.9,367.3c-49.5-192.7-205.2-314.8-419.3-337.9c-18.6-2-36.7-3-54.4-3c-186.2,0-318.6,108.7-394.3,257.3
	C830.8,128.6,695.7,28,498.8,28c-13,0-26.3,0.4-39.9,1.3c-195.8,12.9-364,130-417,358.3c-95.3,410.6,355.9,830.4,868,1238.7
	C1454.5,1220.7,1879.4,762.3,1777.9,367.3L1777.9,367.3z"/>
<g>
	<path class="st0" d="M289.6,942.8h188.7l27.4-82.2l25.9,82.2h27.4l12.2,38l30.4-523.4l45.6,738l24.3-252.6l65.4-1.5
		c0,0,54.8-76.1,115.6,0l94.3-1.5l32-79.1l25.9,76.1l25.9,3l10.7,39.6l35-509.7l44.1,725.8l22.8-255.6l74.6,3
		c2.7-0.2,51.7-76.4,112.6-1.5l176.5-1.5"/>
	<circle class="st1" cx="1506.8" cy="938.4" r="25.6"/>
</g>
</svg>
