<?xml version="1.0" encoding="utf-8"?>
<!-- Generator: Adobe Illustrator 21.1.0, SVG Export Plug-In . SVG Version: 6.00 Build 0)  -->
<svg version="1.1" id="Camada_1" xmlns="http://www.w3.org/2000/svg" xmlns:xlink="http://www.w3.org/1999/xlink" x="0px" y="0px"
	 viewBox="0 0 128 128" style="enable-background:new 0 0 128 128;" xml:space="preserve">
<style type="text/css">
	.st0{fill:none;}
</style>
<g transform="matrix(.36867 0 0 .36867 7.7552 456.72)">
	<path d="M248-1062.8l-95.4-84.5l-95.5,84.6v120.8c0,3.1,2.5,5.6,5.6,5.6h59.7v-53c0-3.1,2.5-5.6,5.6-5.6h49c3.1,0,5.6,2.5,5.6,5.6
		v53h59.7c3.1,0,5.6-2.5,5.6-5.6L248-1062.8L248-1062.8z"/>
	<path d="M152-1193.6L16.6-1073.7l14.3,16.1l121.7-107.8l121.7,107.8l14.2-16.1l-135.4-119.9l-0.5,0.6L152-1193.6L152-1193.6z"/>
	<path d="M57.1-1176.4h34.3l-0.3,20.3l-34,30.8L57.1-1176.4L57.1-1176.4z"/>
</g>
<rect x="5.4" y="2.5" class="st0" width="121.5" height="121.5"/>
</svg>
