<?xml version="1.0" encoding="utf-8"?>
<!-- Generator: Adobe Illustrator 21.1.0, SVG Export Plug-In . SVG Version: 6.00 Build 0)  -->
<svg version="1.1" xmlns="http://www.w3.org/2000/svg" xmlns:xlink="http://www.w3.org/1999/xlink" x="0px" y="0px"
	 viewBox="0 0 123.5 123.5" style="enable-background:new 0 0 123.5 123.5;" xml:space="preserve">
<style type="text/css">
	.st0{fill:#231F20;}
	.st1{fill:#FFFFFF;}
	.st2{fill:#00A651;}
</style>
<g id="Camada_1">
	<g id="Camada_1_1_">
		<path class="st0" d="M109.1,123.3c8.2,0,14.8-6.6,14.8-14.7v-94c0-8.2-6.6-14.8-14.8-14.8h-94C6.9-0.2,0.3,6.4,0.3,14.6v94
			c0,8.2,6.6,14.7,14.8,14.7L109.1,123.3L109.1,123.3z"/>
		<path class="st0" d="M47.5,2.3"/>
		<path class="st1" d="M28.6,107.9h-4.5c-0.3,0-0.6-0.3-0.6-0.6V93.7c0-0.3,0.3-0.6,0.6-0.6h4.5c0.3,0,0.6,0.3,0.6,0.6v13.7
			C29.2,107.7,28.9,107.9,28.6,107.9z"/>
		<path class="st1" d="M28.6,86.3h-4.5c-0.3,0-0.6-0.3-0.6-0.6V72.1c0-0.3,0.3-0.6,0.6-0.6h4.5c0.3,0,0.6,0.3,0.6,0.6v13.7
			C29.2,86.1,28.9,86.3,28.6,86.3z"/>
		<path class="st1" d="M109.1,2.3h-94C8.3,2.3,2.8,7.8,2.8,14.6v94c0,6.8,5.5,12.3,12.3,12.3h94c6.8,0,12.3-5.5,12.3-12.3v-94
			C121.4,7.8,115.9,2.3,109.1,2.3z"/>
	</g>
	<path class="st2" d="M109.4,2.3H14.7c-6.6,0-12,5.4-12,12v94.6c0,6.6,5.4,12,12,12h94.7c6.6,0,12-5.4,12-12V14.3
		C121.4,7.7,116,2.3,109.4,2.3z"/>
	<g id="Camada_2">
		<g>
			<polygon points="41.2,2.3 22.9,120.9 100.6,120.9 83.4,2.3 			"/>
		</g>
	</g>
	<g id="Camada_3">
		<path class="st1" d="M62.7,120h-1.9c-1.7,0-3.1-1.4-3.1-3.1v-11.6c0-1.7,1.4-3.1,3.1-3.1h1.9c1.7,0,3.1,1.4,3.1,3.1v11.6
			C65.8,118.6,64.4,120,62.7,120z"/>
		<path class="st1" d="M62.7,93.1h-1.9c-1.7,0-3.1-1.4-3.1-3.1V78.4c0-1.7,1.4-3.1,3.1-3.1h1.9c1.7,0,3.1,1.4,3.1,3.1V90
			C65.8,91.7,64.4,93.1,62.7,93.1z"/>
		<path class="st1" d="M62.2,65.1h-0.9c-1.7,0-3.1-1.4-3.1-3.1v-9.4c0-1.7,1.4-3.1,3.1-3.1h0.9c1.7,0,3.1,1.4,3.1,3.1V62
			C65.3,63.7,63.9,65.1,62.2,65.1z"/>
		<path class="st1" d="M62.2,38.8h-0.4c-1.7,0-3.1-1.4-3.1-3.1v-8.3c0-1.7,1.4-3.1,3.1-3.1h0.4c1.7,0,3.1,1.4,3.1,3.1v8.3
			C65.3,37.4,63.9,38.8,62.2,38.8z"/>
		<path class="st1" d="M62.1,16.2L62.1,16.2c-1.7,0-3.1-1.4-3.1-3.1V6.2c0-1.7,1.4-3.1,3.1-3.1l0,0c1.7,0,3.1,1.4,3.1,3.1v6.9
			C65.1,14.8,63.8,16.2,62.1,16.2z"/>
	</g>
</g>
<g id="Camada_2_1_">
</g>
</svg>
