<?xml version="1.0" encoding="utf-8"?>
<!-- Generator: Adobe Illustrator 21.1.0, SVG Export Plug-In . SVG Version: 6.00 Build 0)  -->
<svg version="1.1" id="Layer_1" xmlns="http://www.w3.org/2000/svg" xmlns:xlink="http://www.w3.org/1999/xlink" x="0px" y="0px"
	 viewBox="0 0 283.5 283.5" style="enable-background:new 0 0 283.5 283.5;" xml:space="preserve">
<style type="text/css">
	.st0{fill:#FFFFFF;}
	.st1{fill:none;}
	.st2{fill:#0169CE;stroke:#0169CE;stroke-width:4;stroke-miterlimit:10;}
	.st3{font-family:'Constantia-Bold';}
	.st4{font-size:88.4998px;}
	.st5{letter-spacing:5;}
	.st6{display:none;}
	.st7{display:inline;fill:url(#SVGID_1_);}
	.st8{display:inline;}
	.st9{fill:url(#SVGID_2_);}
	.st10{fill:url(#SVGID_3_);}
	.st11{fill:url(#SVGID_4_);}
	.st12{fill:url(#SVGID_5_);}
	.st13{display:inline;fill:url(#SVGID_6_);}
	.st14{fill:url(#SVGID_7_);}
	.st15{fill:url(#SVGID_8_);}
	.st16{fill:url(#SVGID_9_);}
	.st17{display:none;fill:url(#SVGID_10_);}
	.st18{display:none;fill:url(#SVGID_11_);}
	.st19{display:none;fill:url(#SVGID_12_);}
	.st20{display:none;opacity:0.3;}
	.st21{display:inline;fill:url(#SVGID_13_);}
	.st22{display:inline;fill:url(#SVGID_14_);}
	.st23{display:inline;fill:url(#SVGID_15_);}
	.st24{display:inline;fill:url(#SVGID_16_);}
	.st25{display:none;fill:url(#SVGID_17_);}
</style>
<path class="st0" d="M255.1,26.8H142.4h-114c-2.6,0-5.1,1-6.9,3.1c-1.8,1.8-2.8,4.5-3,7.2l18,209v0.2v0.2c0,2.7,1,5.3,3,7.2
	c1.8,1.8,4.4,3.1,6.9,3.1h96h96.2c2.6,0,5.1-1,6.9-3.1c1.8-1.8,3-4.5,3-7.2v-0.2v-0.2l16.6-209c0-2.7-1-5.1-3-7.2
	C260.3,27.9,257.9,26.8,255.1,26.8z"/>
<path class="st1" d="M181.7,39.3v12.1v16.2c0,1.3-0.4,2.4-1.3,3c-0.9,0.9-1.9,1.3-3.2,1.3h-35.6H106c-1.3,0-2.4-0.4-3.2-1.3
	c-0.9-0.9-1.3-1.9-1.3-3V51.4V39.3H181.7z"/>
<text transform="matrix(1 0 0 1 74.0426 109.1183)" class="st2 st3 st4 st5">KG</text>
<g class="st6">
	<linearGradient id="SVGID_1_" gradientUnits="userSpaceOnUse" x1="-118.9153" y1="346.0294" x2="549.0991" y2="346.0294">
		<stop  offset="0" style="stop-color:#9D9CA1"/>
		<stop  offset="0.3389" style="stop-color:#B2B1B6"/>
		<stop  offset="0.9785" style="stop-color:#E2E3E6"/>
		<stop  offset="1" style="stop-color:#747378"/>
	</linearGradient>
	<path class="st7" d="M356.1,136.7H143.3H-72.1c-5,0-9.7,1.9-13.3,5.5c-3.5,3.5-5.4,8.1-5.5,13l34.1,380.8l0,0.3v0.3
		c0,5,1.9,9.7,5.5,13.2c3.5,3.5,8.2,5.5,13.3,5.5h181.3h181.5c5,0,9.7-2,13.3-5.5c3.5-3.5,5.5-8.2,5.5-13.2v-0.3l0-0.3l31.3-380.8
		c-0.1-4.9-2-9.5-5.5-13C365.8,138.7,361.1,136.7,356.1,136.7z"/>
	<g class="st8">
		<linearGradient id="SVGID_2_" gradientUnits="userSpaceOnUse" x1="143.2805" y1="346.0331" x2="374.8582" y2="346.0331">
			<stop  offset="0" style="stop-color:#9D9CA1"/>
			<stop  offset="0.3389" style="stop-color:#B2B1B6"/>
			<stop  offset="0.9785" style="stop-color:#E2E3E6"/>
			<stop  offset="1" style="stop-color:#747378"/>
		</linearGradient>
		<path class="st9" d="M324.8,555.3c5,0,9.7-2,13.3-5.5c3.5-3.5,5.5-8.3,5.5-13.3v-0.3l0-0.3l31.3-380.8c-0.1-4.9-2-9.5-5.5-13
			c-3.6-3.5-8.3-5.5-13.3-5.5H143.3v418.6H324.8z"/>
		<linearGradient id="SVGID_3_" gradientUnits="userSpaceOnUse" x1="134.9303" y1="346.0296" x2="252.1685" y2="346.0296">
			<stop  offset="0" style="stop-color:#9D9CA1"/>
			<stop  offset="0.3389" style="stop-color:#B2B1B6"/>
			<stop  offset="0.9785" style="stop-color:#E2E3E6"/>
			<stop  offset="1" style="stop-color:#747378"/>
		</linearGradient>
		<path class="st10" d="M380.5,131.5c-4.6-4.6-10.8-7.2-17.4-7.2H143.3v12.5h212.8c5,0,9.7,1.9,13.3,5.5c3.5,3.5,5.4,8.1,5.5,13
			l-31.3,380.8l0,0.3v0.3c0,5-2,9.7-5.5,13.3c-3.5,3.5-8.2,5.5-13.3,5.5H143.3v12.4H331c6.6,0,12.7-2.6,17.4-7.2
			c4.6-4.6,7.2-10.8,7.2-17.7l32.2-394.1C387.7,142.3,385.1,136.1,380.5,131.5z"/>
		<linearGradient id="SVGID_4_" gradientUnits="userSpaceOnUse" x1="-90.8582" y1="346.0331" x2="143.2805" y2="346.0331">
			<stop  offset="0" style="stop-color:#9D9CA1"/>
			<stop  offset="0.3389" style="stop-color:#B2B1B6"/>
			<stop  offset="0.9785" style="stop-color:#E2E3E6"/>
			<stop  offset="1" style="stop-color:#747378"/>
		</linearGradient>
		<path class="st11" d="M-38,555.3c-5,0-9.7-2-13.3-5.5c-3.5-3.5-5.5-8.3-5.5-13.3v-0.3l0-0.3l-34.1-380.8c0.1-4.9,2-9.5,5.5-13
			c3.6-3.5,8.3-5.5,13.3-5.5h215.4v418.6H-38z"/>
		
			<linearGradient id="SVGID_5_" gradientUnits="userSpaceOnUse" x1="1252.5383" y1="346.0296" x2="1134.0698" y2="346.0296" gradientTransform="matrix(-1 0 0 1 1140.4375 0)">
			<stop  offset="0" style="stop-color:#9D9CA1"/>
			<stop  offset="0.3389" style="stop-color:#B2B1B6"/>
			<stop  offset="0.9785" style="stop-color:#E2E3E6"/>
			<stop  offset="1" style="stop-color:#747378"/>
		</linearGradient>
		<path class="st12" d="M-96.5,131.5c4.6-4.6,10.8-7.2,17.4-7.2h222.4v12.5H-72.1c-5,0-9.7,1.9-13.3,5.5c-3.5,3.5-5.4,8.1-5.5,13
			l34.1,380.8l0,0.3v0.3c0,5,1.9,9.7,5.5,13.3c3.5,3.5,8.3,5.5,13.3,5.5h181.3v12.4H-44.1c-6.6,0-12.7-2.6-17.4-7.2
			c-4.6-4.6-7.2-10.8-7.2-17.7l-35-394.1C-103.7,142.3-101.1,136.1-96.5,131.5z"/>
	</g>
	<linearGradient id="SVGID_6_" gradientUnits="userSpaceOnUse" x1="363.1078" y1="346.0296" x2="386.9876" y2="346.0296">
		<stop  offset="0" style="stop-color:#9D9CA1"/>
		<stop  offset="0.3389" style="stop-color:#B2B1B6"/>
		<stop  offset="0.9785" style="stop-color:#E2E3E6"/>
		<stop  offset="1" style="stop-color:#747378"/>
	</linearGradient>
	<path class="st13" d="M380.5,131.5c-4.6-4.6-10.8-7.2-17.4-7.2H-79.1c-6.6,0-12.7,2.6-17.4,7.2c-4.6,4.6-7.2,10.8-7.2,17l35,394.8
		c0,6.6,2.6,12.7,7.2,17.4c4.6,4.6,10.8,7.2,17.4,7.2H331c6.6,0,12.7-2.6,17.4-7.2c4.6-4.6,7.2-10.8,7.2-17.7l32.1-394.1
		C387.7,142.3,385.1,136.1,380.5,131.5z M343.6,535.9l0,0.3v0.3c0,5-2,9.7-5.5,13.3c-3.5,3.5-8.2,5.5-13.3,5.5H143.3H-38
		c-5,0-9.7-2-13.3-5.5c-3.5-3.5-5.5-8.3-5.5-13.3v-0.3l0-0.3l-34.1-380.8c0.1-4.9,2-9.5,5.5-13c3.5-3.5,8.3-5.5,13.3-5.5h215.4
		h212.8c5,0,9.7,1.9,13.3,5.5c3.5,3.5,5.4,8.1,5.5,13L343.6,535.9z"/>
	<g class="st8">
		<linearGradient id="SVGID_7_" gradientUnits="userSpaceOnUse" x1="66.0505" y1="346.0296" x2="140.84" y2="346.0296">
			<stop  offset="0" style="stop-color:#9D9CA1"/>
			<stop  offset="0.3389" style="stop-color:#B2B1B6"/>
			<stop  offset="0.9785" style="stop-color:#E2E3E6"/>
			<stop  offset="1" style="stop-color:#747378"/>
		</linearGradient>
		<path class="st14" d="M-38,555.3c-5,0-9.7-2-13.3-5.5c-3.5-3.5-5.5-8.3-5.5-13.3v-0.3l0-0.3l-34.1-380.8c0.1-4.9,2-9.5,5.5-13
			c3.5-3.5,8.3-5.5,13.3-5.5h215.4v-12.5H-79.1c-6.6,0-12.7,2.6-17.4,7.2c-4.6,4.6-7.2,10.8-7.2,17l35,394.8
			c0,6.6,2.5,12.7,7.2,17.4c4.6,4.6,10.8,7.2,17.4,7.2h187.4v-12.4H-38z"/>
		
			<linearGradient id="SVGID_8_" gradientUnits="userSpaceOnUse" x1="-161.7307" y1="346.0296" x2="-235.7381" y2="346.0296" gradientTransform="matrix(-1 0 0 1 149.5029 0)">
			<stop  offset="0" style="stop-color:#9D9CA1"/>
			<stop  offset="0.3389" style="stop-color:#B2B1B6"/>
			<stop  offset="0.9785" style="stop-color:#E2E3E6"/>
			<stop  offset="1" style="stop-color:#747378"/>
		</linearGradient>
		<path class="st15" d="M324.8,555.3c5,0,9.7-2,13.3-5.5c3.5-3.5,5.5-8.3,5.5-13.3v-0.3l0-0.3l31.3-380.8c-0.1-4.9-2-9.5-5.5-13
			c-3.5-3.5-8.3-5.5-13.3-5.5H143.3v-12.5h219.8c6.6,0,12.7,2.6,17.4,7.2c4.6,4.6,7.2,10.8,7.2,17l-32.2,394.8
			c0,6.6-2.5,12.7-7.2,17.4c-4.6,4.6-10.8,7.2-17.4,7.2H143.3v-12.4H324.8z"/>
	</g>
	<g class="st8">
		<linearGradient id="SVGID_9_" gradientUnits="userSpaceOnUse" x1="-91.7301" y1="346.0296" x2="375.7339" y2="346.0296">
			<stop  offset="0" style="stop-color:#9D9CA1"/>
			<stop  offset="0.3389" style="stop-color:#B2B1B6"/>
			<stop  offset="0.9785" style="stop-color:#E2E3E6"/>
			<stop  offset="1" style="stop-color:#747378"/>
		</linearGradient>
		<path class="st16" d="M324.8,556.2H-38c-5.2,0-10.2-2-13.9-5.8c-3.7-3.7-5.7-8.6-5.7-13.9l0-0.6l-34.1-380.8
			c0.1-5.2,2.1-10,5.7-13.6c3.7-3.7,8.6-5.7,13.9-5.7h428.2c5.2,0,10.2,2,13.9,5.7c3.6,3.6,5.7,8.4,5.7,13.6l-31.3,381.2l0,0.3
			c0,5.2-2,10.2-5.7,13.9C335,554.2,330.1,556.2,324.8,556.2z M-72.1,137.6c-4.8,0-9.3,1.9-12.6,5.2c-3.3,3.3-5.2,7.7-5.2,12.4
			l34.1,381.4c0,4.8,1.9,9.3,5.2,12.6c3.4,3.4,7.9,5.2,12.6,5.2h362.8c4.8,0,9.3-1.9,12.6-5.2c3.4-3.4,5.2-7.9,5.2-12.6l0-0.7
			L374,155.1c-0.1-4.6-1.9-9-5.2-12.3c-3.4-3.4-7.9-5.2-12.6-5.2H-72.1z"/>
	</g>
</g>
<linearGradient id="SVGID_10_" gradientUnits="userSpaceOnUse" x1="176.8214" y1="539.2238" x2="350.388" y2="539.2238">
	<stop  offset="0" style="stop-color:#9D9CA1"/>
	<stop  offset="0.3389" style="stop-color:#B2B1B6"/>
	<stop  offset="0.9785" style="stop-color:#E2E3E6"/>
	<stop  offset="1" style="stop-color:#747378"/>
</linearGradient>
<path class="st17" d="M345.1,510.7l-1.8,25.3l0,0.3v0.3c0,5-2,9.7-5.5,13.3c-3.5,3.5-8.3,5.5-13.3,5.5H143H-38.3
	c-5,0-9.7-2-13.3-5.5c-3.5-3.5-5.5-8.3-5.5-13.3v-0.3l0-0.3l-1.8-25.3h-10l-0.1,32.6c0,6.6,2.6,12.7,7.2,17.4
	c4.6,4.6,10.8,7.2,17.4,7.2h375.1c6.6,0,12.7-2.6,17.4-7.2c4.6-4.6,7.2-10.8,7.2-17.7l-0.4-32.3H345.1z"/>
<linearGradient id="SVGID_11_" gradientUnits="userSpaceOnUse" x1="46.8958" y1="196.6097" x2="237.106" y2="196.6097">
	<stop  offset="0" style="stop-color:#9D9CA1"/>
	<stop  offset="0.3389" style="stop-color:#B2B1B6"/>
	<stop  offset="0.9785" style="stop-color:#E2E3E6"/>
	<stop  offset="1" style="stop-color:#747378"/>
</linearGradient>
<path class="st18" d="M142,137.4H46.9l4.4,57l4.4,57c0,0.6,0.1,1.2,0.3,1.7c0.2,0.5,0.5,1,0.9,1.4c0.4,0.4,0.8,0.7,1.4,0.9
	c0.5,0.2,1.1,0.3,1.7,0.3h41h41h0h41h41c0.6,0,1.2-0.1,1.7-0.3c0.5-0.2,1-0.5,1.4-0.9c0.4-0.4,0.7-0.8,0.9-1.4
	c0.2-0.5,0.3-1.1,0.3-1.7l4.4-57l4.4-57H142z"/>
<linearGradient id="SVGID_12_" gradientUnits="userSpaceOnUse" x1="72.7719" y1="196.6096" x2="211.2265" y2="196.6096">
	<stop  offset="0" style="stop-color:#9D9CA1"/>
	<stop  offset="0.3389" style="stop-color:#B2B1B6"/>
	<stop  offset="0.9785" style="stop-color:#E2E3E6"/>
	<stop  offset="1" style="stop-color:#747378"/>
</linearGradient>
<path class="st19" d="M211.2,168.4v20.8v28c0,2.1-0.9,3.9-2.2,5.3c-1.4,1.4-3.3,2.2-5.4,2.2H142H80.5c-2.1,0-4-0.8-5.4-2.2
	c-1.4-1.4-2.2-3.2-2.2-5.3v-28v-20.8H211.2z"/>
<g class="st20">
	<linearGradient id="SVGID_13_" gradientUnits="userSpaceOnUse" x1="96.3058" y1="198.3956" x2="113.3534" y2="198.3956">
		<stop  offset="0" style="stop-color:#9D9CA1"/>
		<stop  offset="0.3389" style="stop-color:#B2B1B6"/>
		<stop  offset="0.9785" style="stop-color:#E2E3E6"/>
		<stop  offset="1" style="stop-color:#747378"/>
	</linearGradient>
	<path class="st21" d="M96.3,196.1v-10.4l4,3.9v5.4l-2.5,2.5L96.3,196.1z M112.6,184.9l-4,4h-7.5l-4-4H112.6z M112.6,211.9H97.1l4-4
		h7.5L112.6,211.9z M109.1,196.4l2,2l-2,2h-8.5l-2-2l2-2H109.1z M113.4,200.6v10.4l-4-4v-5.4l2.5-2.5L113.4,200.6z"/>
	<linearGradient id="SVGID_14_" gradientUnits="userSpaceOnUse" x1="117.8586" y1="198.3956" x2="134.91" y2="198.3956">
		<stop  offset="0" style="stop-color:#9D9CA1"/>
		<stop  offset="0.3389" style="stop-color:#B2B1B6"/>
		<stop  offset="0.9785" style="stop-color:#E2E3E6"/>
		<stop  offset="1" style="stop-color:#747378"/>
	</linearGradient>
	<path class="st22" d="M117.9,196.1v-10.4l4,3.9v5.4l-2.5,2.5L117.9,196.1z M134.2,184.9l-4,4h-7.5l-4-4H134.2z M134.2,211.9h-15.5
		l4-4h7.5L134.2,211.9z M130.7,196.4l2,2l-2,2h-8.5l-2-2l2-2H130.7z M134.9,200.6v10.4l-4-4v-5.4l2.5-2.5L134.9,200.6z"/>
	<linearGradient id="SVGID_15_" gradientUnits="userSpaceOnUse" x1="138.9849" y1="209.8642" x2="142.9869" y2="209.8642">
		<stop  offset="0" style="stop-color:#9D9CA1"/>
		<stop  offset="0.3389" style="stop-color:#B2B1B6"/>
		<stop  offset="0.9785" style="stop-color:#E2E3E6"/>
		<stop  offset="1" style="stop-color:#747378"/>
	</linearGradient>
	<path class="st23" d="M139,211.9v-4h4v4H139z"/>
	<linearGradient id="SVGID_16_" gradientUnits="userSpaceOnUse" x1="147.8007" y1="198.016" x2="164.0855" y2="198.016">
		<stop  offset="0" style="stop-color:#9D9CA1"/>
		<stop  offset="0.3389" style="stop-color:#B2B1B6"/>
		<stop  offset="0.9785" style="stop-color:#E2E3E6"/>
		<stop  offset="1" style="stop-color:#747378"/>
	</linearGradient>
	<path class="st24" d="M163.3,184.9l-4,4h-7.5l-4-4H163.3z M160.1,195.1v-5.4l4-4v10.4l-1.5,1.5L160.1,195.1z M164.1,200.7v10.4
		l-4-4v-5.4l2.5-2.5L164.1,200.7z"/>
</g>
<linearGradient id="SVGID_17_" gradientUnits="userSpaceOnUse" x1="72.7738" y1="196.6096" x2="211.2265" y2="196.6096">
	<stop  offset="0" style="stop-color:#9D9CA1"/>
	<stop  offset="0.3389" style="stop-color:#B2B1B6"/>
	<stop  offset="0.9785" style="stop-color:#E2E3E6"/>
	<stop  offset="1" style="stop-color:#747378"/>
</linearGradient>
<path class="st25" d="M72.8,189.3v28c0,2.1,0.9,3.9,2.2,5.3c1.4,1.4,3.3,2.2,5.4,2.2H142h61.6c2.1,0,4-0.8,5.4-2.2
	c1.4-1.4,2.2-3.2,2.2-5.3v-28v-20.8H72.8V189.3z M74.3,189.3v-19.3h135.4v19.3v28c0,1.6-0.6,3.1-1.8,4.2c-1.2,1.1-2.7,1.8-4.4,1.8
	H142H80.5c-1.7,0-3.2-0.6-4.4-1.8c-1.2-1.1-1.8-2.6-1.8-4.2V189.3z"/>
</svg>
