<?xml version="1.0" encoding="utf-8"?>
<!-- Generator: Adobe Illustrator 21.1.0, SVG Export Plug-In . SVG Version: 6.00 Build 0)  -->
<svg version="1.1" id="Layer_1" xmlns="http://www.w3.org/2000/svg" xmlns:xlink="http://www.w3.org/1999/xlink" x="0px" y="0px"
	 viewBox="0 0 283.5 283.5" style="enable-background:new 0 0 283.5 283.5;" xml:space="preserve">
<style type="text/css">
	.st0{fill:#1E90FF;}
	.st1{fill:url(#SVGID_1_);}
	.st2{fill:none;}
	.st3{fill:#FFFFFF;stroke:#FFFFFF;stroke-miterlimit:10;}
	.st4{font-family:'News706BT-BoldC';}
	.st5{font-size:88.4998px;}
</style>
<path class="st0" d="M255.4,26.8H142.6h-114c-2.6,0-5.1,1-6.9,3.1c-1.8,1.8-2.8,4.5-3,7.2l18,209v0.2v0.2c0,2.7,1,5.3,3,7.2
	c1.8,1.8,4.4,3.1,6.9,3.1h96h96.2c2.6,0,5.1-1,6.9-3.1c1.8-1.8,3-4.5,3-7.2v-0.2v-0.2l16.6-209c0-2.7-1-5.1-3-7.2
	C260.5,27.9,258.1,26.8,255.4,26.8z"/>
<linearGradient id="SVGID_1_" gradientUnits="userSpaceOnUse" x1="417.0011" y1="28.7916" x2="417.0011" y2="154.6608" gradientTransform="matrix(1 0 0 -1 0 286)">
	<stop  offset="0" style="stop-color:#97999C"/>
	<stop  offset="0.2919" style="stop-color:#A8AAAC"/>
	<stop  offset="0.8938" style="stop-color:#D5D6D8"/>
	<stop  offset="0.9785" style="stop-color:#DCDDDE"/>
	<stop  offset="1" style="stop-color:#6F7173"/>
</linearGradient>
<path class="st1" d="M417,131.3H315.8l4.8,60.8l4.8,60.8c0,0.8,0,1.2,0.4,1.6c0.4,0.4,0.4,1.2,0.8,1.6c0.4,0.4,0.8,0.8,1.6,0.8
	c0.4,0.4,1.2,0.4,1.6,0.4h43.7H417l0,0h43.7h43.7c0.8,0,1.2,0,1.6-0.4c0.4-0.4,1.2-0.4,1.6-0.8c0.4-0.4,0.8-0.8,0.8-1.6
	c0.4-0.4,0.4-1.2,0.4-1.6l4.8-60.8l4.8-60.8H417z"/>
<path class="st2" d="M181.7,39.3v12.1v16.2c0,1.3-0.4,2.4-1.3,3c-0.9,0.9-1.9,1.3-3.2,1.3h-35.6H106c-1.3,0-2.4-0.4-3.2-1.3
	c-0.9-0.9-1.3-1.9-1.3-3V51.4V39.3H181.7z"/>
<text transform="matrix(1 0 0 1 72.9912 104.7949)" class="st3 st4 st5">KG</text>
</svg>
