<?xml version="1.0" encoding="utf-8"?>
<!-- Generator: Adobe Illustrator 21.1.0, SVG Export Plug-In . SVG Version: 6.00 Build 0)  -->
<svg version="1.1" id="Camada_1" xmlns="http://www.w3.org/2000/svg" xmlns:xlink="http://www.w3.org/1999/xlink" x="0px" y="0px"
	 viewBox="0 0 14 13" style="enable-background:new 0 0 14 13;" xml:space="preserve">
<g transform="translate(-1238.5 -175.72)">
	<path d="M1245.5,177.2c-1.9,0-3.4,1.5-3.4,3.4c0,1.9,1.5,3.4,3.4,3.4s3.4-1.5,3.4-3.4C1248.9,178.7,1247.4,177.2,1245.5,177.2z
		 M1242.3,183.8c-1,0.2-1.7,1.1-1.7,2v2.8h9.7v-2.8c0-1-0.7-1.9-1.7-2c-0.7,1-1.9,1.6-3.3,1.6S1243.1,184.8,1242.3,183.8
		L1242.3,183.8L1242.3,183.8L1242.3,183.8z"/>
</g>
</svg>
